<?xml version="1.0" encoding="utf-8"?>
<!-- Generator: Adobe Illustrator 18.1.0, SVG Export Plug-In . SVG Version: 6.00 Build 0)  -->
<svg version="1.1" id="Layer_1" xmlns="http://www.w3.org/2000/svg" xmlns:xlink="http://www.w3.org/1999/xlink" x="0px" y="0px"
	 viewBox="0 0 1000 1000" enable-background="new 0 0 1000 1000" xml:space="preserve">
<path fill="none" d="M0,0h1000v1000H0V0z"/>
<path fill="#9E79B5" d="M500,187.5c-208.3,0-386.2,129.6-458.3,312.5c72.1,182.9,250,312.5,458.3,312.5S886.2,682.9,958.3,500
	C886.2,317.1,708.5,187.5,500,187.5z M500,708.3c-115,0-208.3-93.3-208.3-208.3S385,291.7,500,291.7S708.3,385,708.3,500
	S615,708.3,500,708.3z M500,375c-69,0-125,56-125,125s56,125,125,125s125-56,125-125S569,375,500,375z"/>
<rect x="27.6" y="462.4" transform="matrix(0.7071 -0.7071 0.7071 0.7071 -214.7662 489.8655)" fill="#CCB5D7" width="912.6" height="83.6"/>
</svg>
