<?xml version="1.0" encoding="utf-8"?>
<!-- Generator: Adobe Illustrator 18.1.0, SVG Export Plug-In . SVG Version: 6.00 Build 0)  -->
<svg version="1.1" id="Layer_1" xmlns="http://www.w3.org/2000/svg" xmlns:xlink="http://www.w3.org/1999/xlink" x="0px" y="0px"
	 viewBox="0 0 1000 1000" enable-background="new 0 0 1000 1000" xml:space="preserve">
<rect y="221.6" fill="#231F20" width="1000" height="500"/>
<g>
	<path fill="#F7B3BF" d="M277.9,491.2h-89.5l0.4,103.7h-31.2V362.8h120.3V491.2z M245.5,462v-70.5h-57.1V462H245.5z"/>
	<path fill="#F7B3BF" d="M374.7,563.3h97.6v31.6H344V362.8l30.8-0.4V563.3z"/>
	<path fill="#F7B3BF" d="M667.2,594.9h-32.4V491.2h-65.2v103.7h-30.8V362.8h128.4V594.9z M569.6,391.6V462h65.2v-70.5H569.6z"/>
	<path fill="#F7B3BF" d="M862,362.8v232.1H733.6v-29.2h96v-45.4h-95.2V362.8h30v127.6h65.2V362.8H862z"/>
</g>
<rect fill="none" width="1000" height="1000"/>
</svg>
