<?xml version="1.0" encoding="utf-8"?>
<!-- Generator: Adobe Illustrator 18.1.0, SVG Export Plug-In . SVG Version: 6.00 Build 0)  -->
<svg version="1.1" id="Layer_1" xmlns="http://www.w3.org/2000/svg" xmlns:xlink="http://www.w3.org/1999/xlink" x="0px" y="0px"
	 viewBox="0 0 1000 1000" enable-background="new 0 0 1000 1000" xml:space="preserve">
<g>
	<path fill="#CCB5D7" d="M234,388.9c0,27.2-2.8,47.5-9.2,60.8c-6.4,13.4-19,26.7-38.2,40.1c18.1,11.7,30.3,24.9,37.3,39.6
		c6.9,14.7,10.1,35.4,10.1,62v108.1c0,21.4,6.3,34.5,18,40.3c6.4,3.2,22,4.3,46.1,4.3c5.3,0,7.9,0,13.9,0v92.3l-49.9,3.7h-9.6
		c-43.8,0-75.4-9.9-94.1-27.5c-18.7-17.7-28.4-48.3-28.4-89.9V598.5c0-40-11.7-62.9-42-68.8v-88c24.3-4.8,36.6-16.8,39.8-36
		l2.2-18.4V257.6c0-42.1,9.6-71.3,28-88.9s50.2-25.7,94.5-25.7c1,0,2.7,0,4.8,0c2.1,0,3.7,0,4.8,0H312v92h-13.9
		c-24,0-39.7,1.7-46.1,4.9c-11.8,5.9-18,19.6-18,40.9V388.9z"/>
</g>
<g>
	<path fill="#CCB5D7" d="M773,593.9c0-27,2.7-47,9-60.3c6.3-13.2,18.8-26.7,37.8-40.4c-18-11.6-30-24.6-36.9-38.8
		c-6.9-14.3-9.9-34.6-9.9-61v-107c0-21.7-6.3-35.2-17.9-40.5c-6.3-3.2-22.2-4.8-46.5-4.8H695v-90.3l51.2-1.3c1.1,0,1.5-0.5,3.6-0.5
		c2.1,0,3.7,0,4.8,0c43.3,0,75.2,8.5,93.7,26.2c18.5,17.7,28.7,46.9,28.7,88.1v122.1c0,20.1,2,34.9,6.7,44.4
		c6.9,12.7,17.1,20.6,35.3,23.8v87.2c-24.3,5.8-37.4,18-40,36.5l-2,18.2V724c0,41.2-10.2,71.5-28.7,88.9
		c-18.5,17.4-50.4,27.1-93.7,27.1H745l-50-3.5V744c6,0,9.1,0,14.4,0c23.8,0,39.4-0.5,45.7-3.7c11.6-5.8,17.9-18.2,17.9-39.4V593.9z"
		/>
</g>
<rect x="355" y="325" fill="#9E79B5" width="309" height="73"/>
<rect x="355" y="459" fill="#F7B3BF" width="309" height="72"/>
<rect x="355" y="586" fill="#9E79B5" width="309" height="72"/>
<rect fill="none" width="1000" height="1000"/>
</svg>
