<?xml version="1.0" encoding="utf-8"?>
<!-- Generator: Adobe Illustrator 18.1.0, SVG Export Plug-In . SVG Version: 6.00 Build 0)  -->
<svg version="1.1" id="Layer_1" xmlns="http://www.w3.org/2000/svg" xmlns:xlink="http://www.w3.org/1999/xlink" x="0px" y="0px"
	 viewBox="0 0 1000 1000" enable-background="new 0 0 1000 1000" xml:space="preserve">
<rect y="374" fill="#9E79B5" width="732" height="37"/>
<rect y="502" fill="#9E79B5" width="732" height="37"/>
<rect y="612" fill="#9E79B5" width="732" height="36"/>
<g>
	<path fill="#9E79B5" d="M733.2,764.8c-71.8,0-139.2-27.9-190-78.7c-50.7-50.7-78.7-118.2-78.7-190c0-71.8,27.9-139.2,78.7-190
		c50.7-50.7,118.2-78.7,190-78.7s139.2,27.9,190,78.7c50.7,50.7,78.7,118.2,78.7,190c0,71.8-27.9,139.2-78.7,190
		C872.4,736.9,804.9,764.8,733.2,764.8z M733.2,251.9c-65.2,0-126.6,25.4-172.7,71.5c-46.1,46.1-71.5,107.5-71.5,172.7
		s25.4,126.6,71.5,172.7c46.1,46.1,107.5,71.5,172.7,71.5s126.6-25.4,172.7-71.5c46.1-46.1,71.5-107.5,71.5-172.7
		s-25.4-126.6-71.5-172.7C859.8,277.3,798.4,251.9,733.2,251.9z"/>
</g>
<g>
	<path fill="#CCB5D7" d="M715.8,563l-34.7-196.7c-10.7-59.1,13.3-75.3,59.5-75.3c46.2,0,70.2,16.3,59.5,75.4L765.5,563H715.8z
		 M688.2,635.6c0-29.3,23.5-51.1,51.1-51.1c28.4,0,51.1,21.8,51.1,51.1c0,29.3-22.7,51.1-51.1,51.1
		C711.8,686.6,688.2,664.9,688.2,635.6z"/>
</g>
<rect fill="none" width="1001.8" height="1000"/>
</svg>
