<?xml version="1.0" encoding="utf-8"?>
<!-- Generator: Adobe Illustrator 18.1.0, SVG Export Plug-In . SVG Version: 6.00 Build 0)  -->
<svg version="1.1" id="Layer_1" xmlns="http://www.w3.org/2000/svg" xmlns:xlink="http://www.w3.org/1999/xlink" x="0px" y="0px"
	 viewBox="0 0 1000 1000" enable-background="new 0 0 1000 1000" xml:space="preserve">
<path fill="none" d="M0,0h1000v1000H0V0z"/>
<path fill="#9E79B5" d="M764.1,100H235.9c-48.6,0-88,39.4-88,88v528.1c0,48.6,39.4,88,88,88h528.1c48.6,0,88-39.4,88-88V188
	C852.1,139.4,812.7,100,764.1,100z M676,320H544v242c0,60.7-49.3,110-110,110s-110-49.3-110-110s49.3-110,110-110
	c24.9,0,47.5,8.6,66,22.4V232h176V320z"/>
</svg>
