<?xml version="1.0" encoding="utf-8"?>
<!-- Generator: Adobe Illustrator 18.1.0, SVG Export Plug-In . SVG Version: 6.00 Build 0)  -->
<svg version="1.1" id="Layer_1" xmlns="http://www.w3.org/2000/svg" xmlns:xlink="http://www.w3.org/1999/xlink" x="0px" y="0px"
	 viewBox="0 0 1000 1000" enable-background="new 0 0 1000 1000" xml:space="preserve">
<g>
	<path fill="#9E79B5" d="M35.1,528.6c1.5,0.5,3.7,0.8,6.7,0.8s5.5-0.4,7.5-1.1V539c-0.9,0.2-2.3,0.4-4.1,0.4l-4.2,0.1
		c-0.9,0-1.6,0-2.1,0c-8.6,0-14.9-2.8-19-8.4c-3.3-4.5-4.9-10.5-4.9-18v-32.6H5.1v-6.3l9.9-3.9l3.2-17h10.1v17h21.3v10.2H28.3V513
		C28.3,521.8,30.6,526.9,35.1,528.6z"/>
	<path fill="#9E79B5" d="M98.1,480.8c-6.6,0-12.4,2.2-17.6,6.7v51.6H67.2V440h13.3v37.7c7.2-5.6,14.6-8.5,22.3-8.5
		c8.2,0,14.2,2.4,18,7.3c4,5.1,6,13.4,6,24.9v37.5h-13.3v-37.5c0-11-3-17.6-9-19.7C102.7,481.1,100.5,480.8,98.1,480.8z"/>
	<path fill="#9E79B5" d="M178.8,540.2c-25.1,0-37.7-12.3-37.7-36.8c0-10.6,3.5-19,10.5-25.4c6.3-5.8,13.4-8.7,21.4-8.7
		c8.7,0,15.6,2.9,20.5,8.8c4.6,5.5,6.9,12.8,6.9,21.9v5.2H155c0,12.6,5.1,20.2,15.4,23c2.4,0.7,6.2,1,11.3,1s10.1-0.7,14.9-2.1v11.3
		C191.7,539.6,185.8,540.2,178.8,540.2z M187.1,495.4c0-4.3-1.2-7.9-3.5-10.8c-2.8-3.4-6.5-5.1-11.4-5.1c-5.1,0-9.3,1.6-12.4,4.9
		c-2.9,3-4.4,6.7-4.4,11H187.1z"/>
	<path fill="#9E79B5" d="M258.6,482.6c-2.4-0.7-5.4-1.1-8.8-1.1c-3.4,0-6.2,0.3-8.4,1s-4.1,1.5-5.7,2.5c-3,1.8-5.2,3.8-6.6,6v48.1
		h-13.3v-68.7h12.8l0.5,9.5c3.3-4.2,8.2-7.3,14.6-9.4c2.3-0.8,4.9-1.2,7.9-1.2s5.3,0.2,6.9,0.7v12.6H258.6z"/>
	<path fill="#9E79B5" d="M303.8,540.2c-25.1,0-37.7-12.3-37.7-36.8c0-10.6,3.5-19,10.5-25.4c6.3-5.8,13.4-8.7,21.4-8.7
		c8.7,0,15.6,2.9,20.5,8.8c4.6,5.5,6.9,12.8,6.9,21.9v5.2H280c0,12.6,5.1,20.2,15.4,23c2.4,0.7,6.2,1,11.3,1
		c5.1,0,10.1-0.7,14.9-2.1v11.3C316.7,539.6,310.8,540.2,303.8,540.2z M312.1,495.4c0-4.3-1.2-7.9-3.5-10.8
		c-2.8-3.4-6.5-5.1-11.4-5.1c-5.1,0-9.3,1.6-12.4,4.9c-2.9,3-4.4,6.7-4.4,11H312.1z"/>
	<path fill="#9E79B5" d="M402.2,540.2c-5.5,0-11.2-0.4-16.8-1.2v-11.8c5.8,1.4,11.6,2.1,17.6,2.1c11.9,0,17.8-2.5,17.8-7.5
		c0-1.9-0.5-3.3-1.4-4.3c-1.4-1.5-3.6-2.9-6.5-4.4l-9.7-4.5c-6.3-3.2-10.4-5.7-12.2-7.6c-3.5-3.6-5.3-7.8-5.3-12.6
		c0-5.5,2.6-10,7.7-13.4c5.5-3.7,13.2-5.6,23.2-5.6c5,0,10.1,0.4,15.2,1.1v11.4c-5.6-1-10.5-1.5-14.6-1.5c-4.2,0-7.4,0.3-9.7,0.8
		c-2.3,0.5-4,1.2-5.2,2c-1.8,1.2-2.7,2.9-2.7,4.8c0,2,0.6,3.6,1.9,4.8c1.3,1.2,3.3,2.5,6,4l9.8,4.7c6.4,3.3,10.5,5.9,12.3,7.7
		c3.5,3.4,5.2,7.6,5.2,12.7c0,5.5-2.8,9.9-8.3,13.2C420.6,538.4,412.6,540.2,402.2,540.2z"/>
	<path fill="#9E79B5" d="M484.4,480.8c-6.6,0-12.4,2.2-17.6,6.7v51.6h-13.3V440h13.3v37.7c7.2-5.6,14.6-8.5,22.3-8.5
		c8.2,0,14.2,2.4,18,7.3c4,5.1,6,13.4,6,24.9v37.5h-13.3v-37.5c0-11-3-17.6-9-19.7C489,481.1,486.8,480.8,484.4,480.8z"/>
	<path fill="#9E79B5" d="M536.1,526.8c-1.5-2.5-2.2-3.8-2.2-3.8s-0.4-1.7-1.3-5.1c-0.9-3.4-1.3-7.9-1.3-13.4s1.2-10.6,3.6-15.2
		c2.4-4.6,5.5-8.4,9.3-11.4c7.4-5.7,16.6-8.6,27.6-8.6c5.7,0,10.1,0.1,13,0.4l6.5,0.7v68.7h-12l-0.5-7.9c-2.7,3.6-6.7,6.2-12.2,7.9
		c-2.1,0.7-4.2,1-6.4,1s-4.4-0.2-6.5-0.7c-2.1-0.4-4.3-1.2-6.4-2.2c-2.1-1-4.1-2.4-6-4.1C539.3,531.4,537.6,529.3,536.1,526.8z
		 M577.9,480.2c-2.8-0.4-5.7-0.5-8.5-0.5s-5.8,0.5-9,1.5s-5.9,2.6-8.2,4.7c-4.7,4.4-7.1,11.2-7.1,20.3c0,8.6,2,15,6.1,19.1
		c3.1,3.1,6.7,4.6,11.1,4.6c5.5,0,10.1-2,13.7-6.1c0.9-1,1.5-1.9,1.9-2.7V480.2z"/>
	<path fill="#9E79B5" d="M615.4,440h13.3v73c0,8.8,2,14,6,15.5c1.3,0.5,2.8,0.8,4.3,0.8s2.9-0.2,4.1-0.5v10.3l-2.5,0.3
		c-0.8,0.1-1.6,0.1-2.3,0.1c-8.5,0-14.7-2.8-18.4-8.4c-2.9-4.4-4.4-10.4-4.4-18L615.4,440L615.4,440z"/>
	<path fill="#9E79B5" d="M660.9,440h13.3v73c0,8.8,2,14,6,15.5c1.3,0.5,2.8,0.8,4.3,0.8s2.9-0.2,4.1-0.5v10.3l-2.5,0.3
		c-0.8,0.1-1.6,0.1-2.3,0.1c-8.5,0-14.7-2.8-18.4-8.4c-2.9-4.4-4.4-10.4-4.4-18L660.9,440L660.9,440z"/>
	<path fill="#9E79B5" d="M779.8,480.8c-6.6,0-12.5,2.2-17.6,6.7v51.6h-13.3v-68.7h12.3l0.9,7.5c7.2-5.7,14.7-8.5,22.4-8.5
		c8.2,0,14.2,2.4,18,7.3c4,5.1,6,13.4,6,24.9v37.5h-13.3v-37.5c0-11-3-17.6-8.9-19.7C784.4,481.1,782.2,480.8,779.8,480.8z"/>
	<path fill="#9E79B5" d="M824,504.6c0-10.8,3.4-19.5,10.3-26.2c6.4-6.3,14.4-9.4,23.9-9.4c9.3,0,17.1,3.1,23.4,9.4
		c6.7,6.7,10,15.4,10,26.2s-3.4,19.5-10.1,26.1c-6.3,6.3-14.1,9.5-23.4,9.5c-9.4,0-17.3-3.2-23.8-9.5
		C827.4,524.1,824,515.4,824,504.6z M837.8,504.6c0,11.4,3.6,19.1,10.9,23.2c2.6,1.4,5.7,2.1,9.3,2.1s6.6-0.7,9.1-2.2
		c2.5-1.4,4.5-3.3,6.1-5.7c3-4.5,4.5-10.3,4.5-17.4c0-11.3-3.6-19-10.7-23.2c-2.5-1.5-5.5-2.2-8.9-2.2s-6.5,0.7-9,2.2
		c-2.6,1.4-4.6,3.3-6.3,5.7C839.5,491.7,837.8,497.6,837.8,504.6z"/>
	<path fill="#9E79B5" d="M978,528.6c1.5,0.5,3.7,0.8,6.7,0.8s5.5-0.4,7.5-1.1V539c-0.9,0.2-2.3,0.4-4.1,0.4l-4.2,0.1
		c-0.9,0-1.6,0-2.1,0c-8.6,0-14.9-2.8-19-8.4c-3.3-4.5-4.9-10.5-4.9-18v-32.6H948v-6.3l9.9-3.9l3.2-17h10.1v17h21.3v10.2h-21.3V513
		C971.2,521.8,973.5,526.9,978,528.6z"/>
</g>
<g>
	<polygon fill="#F7B3BF" points="803.6,567.2 786,547.2 768.3,567.2 749.1,545.5 752.1,542.9 768.3,561.2 786,541.2 803.6,561.2 
		821.3,541.2 839,561.2 856.7,541.2 874.4,561.2 892,541.2 909.7,561.2 927.4,541.2 945.1,561.2 962.7,541.2 980.4,561.2 
		996.6,542.9 999.6,545.5 980.4,567.2 962.7,547.2 945.1,567.2 927.4,547.2 909.7,567.2 892,547.2 874.4,567.2 856.7,547.2 
		839,567.2 821.3,547.2 	"/>
</g>
<rect fill="none" width="1000" height="1000"/>
</svg>
