<?xml version="1.0" encoding="utf-8"?>
<!-- Generator: Adobe Illustrator 18.1.0, SVG Export Plug-In . SVG Version: 6.00 Build 0)  -->
<svg version="1.1" id="Layer_1" xmlns="http://www.w3.org/2000/svg" xmlns:xlink="http://www.w3.org/1999/xlink" x="0px" y="0px"
	 viewBox="0 0 1000 1000" enable-background="new 0 0 1000 1000" xml:space="preserve">
<g>
	<rect y="0" fill="#010101" width="1000" height="1000"/>
	<path fill="#FFFFFF" d="M498,438.8c31.4-1.7,61.6-9.3,91.3-19.1c3.3-1.1,5.7-0.2,5.5,3.9c-0.6,1.6-1.3,3.2-1.7,4.9
		c-0.9,2.4-1.8,4.9-1.9,7.6c-0.9,1.5-2,2.9-2.8,4.5c-1.4,1.4-1.2,3.3-1.9,5c-1.2,1.5-1.7,3.3-1.8,5.2c-1.3,2.6-2.4,5.4-2.8,6
		c0.4-0.7,1.8-3.4,2.9-6.3c0-2,1-3.6,2-5.2c0.3-1.3,0.2-2.8,1-3.9c0.8-1.1,1.3-2.4,2.3-3.4c2-2.6,1.2-6.2,2.9-8.9
		c0.5-2.3,1.8-4.2,3.6-5.6c3.5-7.3,8.1-11.1,15.5-4.3c2.4,1.2,3.7,3.2,4.4,5.7c0.8,3.7,2,7.3,3.4,10.8c0.4,0.9,0.6,1.8,0.9,2.7
		c1.3,5,3.1,9.8,5.3,14.4c0.4,0.9,0.7,1.8,0.9,2.7c0.8,3.7,0.4,7.6,2,11.2c1.4,4.6,2.6,9.2,3.8,13.8c0.8,2.7,1.1,5.6,2,8.3
		c0.3,0.9,0.5,1.9,0.6,2.8c0.2,2,0,3.8-1.2,5.5c-1.2,0.8-2.5,1.4-3.9,1.3c-2.3-0.2-4.5-1.1-6.6-1.8c-0.9-0.3-1.7-0.8-2.4-1.3
		c-1.1-0.8-2.2-1.7-3.1-2.7c-0.7-0.6-1.3-1.3-1.9-2c-0.6-0.7-1-1.5-1.4-2.3c-0.4-0.8-0.7-1.7-0.9-2.6c-0.5-2.2-1-4.4-1.7-6.6
		c-0.5-2.2-0.6-4.5-0.2-6.7c0.5-2.2,1.3-4.2,1.9-6.3c0.2-0.8,0.5-1.6,0.7-2.4c0.3-1.2,0.5-2.3,0.2-3.5c-0.2-0.7-0.4-1.5-0.7-2.2
		c-0.6-1.4-1.2-2.9-1.7-4.3c-0.4-1.1-0.6-2.2-0.8-3.2c-0.3-1-0.5-1.9-1.1-2.8c-0.5-0.4-1-0.8-1.6-1c-1-0.2-1.9,0.1-2.8,0.6
		c-0.6,0.5-1.1,1-1.5,1.5c-0.8,1.4-0.9,3.1-1.3,4.6c-0.2,0.9-0.5,1.7-0.8,2.6c-0.4,0.8-0.9,1.6-1.5,2.3c-0.3,0.4-0.6,0.7-0.9,1
		c-0.7,0.7-1.4,1.3-2.2,1.8c-0.8,0.5-1.6,1-2.5,1.3c-2.2,0.8-4.3,1.7-5.8,3.6c-2.9,5.6-1.4,11.9-2.6,17.8
		c-2.7,12.9-7.3,16.5-20.8,14.9c-0.8-0.5-1.6-1.1-2.3-1.7c-0.1-1.3,0.3-2.4,1.5-3.1c-0.3-0.1-0.7-0.3-1-0.4c0.3,0.8,0.2,1.5-0.6,2
		c-2.7,3.8-4.2,8.2-6.7,12c-0.7,2.6-2.4,4.9-2.7,7.7c-1.2,1.3-1.7,3-2.4,4.6c-1.2,1.3-1.4,3.1-2.3,4.5c-1.2,1.3-1.2,3.2-2.3,4.5
		c-1.1,1.2-1,2.9-1.7,4.1c0-0.1,0.6,0.5,0.6,0.5s-0.3-0.7-0.3-0.8c0.4-1.1,0.4-2.3,1-3.2c1.2-1.3,1.4-3.1,2.3-4.5
		c1.2-1.3,1.2-3.3,2.4-4.6c1.2-1.4,1.2-3.5,2.5-4.8c1.2-3.1,2.4-6.3,4-9.3c2.9-2,1-9.4,7.8-7c3.4,3.6,4,8.2,3.8,12.8
		c-0.3,8.5,3.5,12.3,12,11.7c3.5-0.3,7,0,10.5,0.1c2.1,0,4.3,0.1,6.3-1c0.7-0.5,1.4-0.9,2.1-1.2c0.7-0.3,1-0.5,0.7-0.6
		c-0.2-0.1-0.4-0.1-0.8-0.1c-0.7-0.6-1.2-1.2-1.6-2c-0.6-1.2-1-2.5-1-3.9c0.2-0.9,0.5-1.8,1.1-2.6c4.5-4.8,11.1-1.5,16.1-4.1
		c0.9-0.3,1.8-0.5,2.7-0.7c1.4-0.2,2.7-0.3,4.1-0.1c0.8,0.1,1.7,0.2,2.5,0.4c1.5,0.2,2.9,0.5,4.3-0.4c0.5-0.6,1-1.1,1.4-1.7
		c0.7-1.5,0.9-3.1,1.4-4.7c0.5-1.4,1.3-2.5,2.9-2.7c1.6,0.5,2.5,1.7,3.1,3.1c1.9,3.5-1,7,0.2,10.5c0.6,4.5,0.5,8.1-4.8,10.3
		c-31.6,12.9-64.1,21.6-98.6,20.1c-1.6-1-3.2-2-4.2-3.7c-2.3-4-4.2-8.1-6.3-12.2c-1.5-3.2-3.1-6.4-4.7-9.5c-0.4-0.8-0.8-1.5-1.1-2.3
		c-0.6-1.2-1.1-2.4-1.6-3.6c-0.4-0.8-0.7-1.6-1-2.5c-0.5-1.3-0.9-2.6-1.4-3.8c-2.2-4.7-3.9-9.7-6.1-14.4c-0.4-0.9-0.7-1.8-1-2.7
		c-0.7-3.2-1.3-6.4-2.5-9.5c-0.6-1.8-1.2-3.6-1.8-5.4c-0.8-2.8-1.2-5.6-2.3-8.3c-0.8-2.9-1.8-5.7-2.5-8.7c-0.4-3.1-1-6.2-1.8-9.3
		C495.3,443.5,496,440.9,498,438.8z"/>
	<path fill="#FFFFFF" d="M480.3,440.7c4.4-5.1,8.7-3.5,13,0.2c2.8,1.1,3.5,3.4,3.5,6c1.9,2.5,2.2,5.4,2,8.5c0,3,2.6,5.3,2.2,8.4
		c1.5,2.6,2.4,5.2,2.1,8.3c0.3,1.9,2,3.3,2.1,5.3c1.6,3.4,1.7,7.3,3.3,10.8l0,0c2.6,5.2,3.3,11.3,6.6,16.3c1.3,1.5,0.5,3.9,2.1,5.3
		l-0.1-0.1c1.3,1.2,0.9,3.2,2.2,4.4l-0.1-0.1c1.7,3.6,2.6,7.5,5,10.7c1.9,4.7,4.3,9.1,6.7,13.5c0.4,2,0.8,4.1-1.1,5.6
		c-23.9,0.7-47.8,0-71.4-4.3c-5-0.9-11.8,0.8-14.4-6.3c0-0.4-0.1-0.9-0.1-1.3c0-0.9,0.2-1.7,0.4-2.6c0.8-2.4,1.3-5,1.9-7.5
		c0.2-0.9,0.4-1.7,0.7-2.5c0.7-2.1,1.3-4.1,2-6.2c1-2.9,2-5.8,3-8.8c0.7-2.1,1.5-4.2,2.1-6.3c0.8-2.5,1.7-5.1,2.5-7.6
		c0.2-0.9,0.6-1.7,0.9-2.5c0.7-1.6,1.5-3.2,2.2-4.8c1.2-2.8,2.1-5.6,3.1-8.5c0.7-2,1.4-4,2.3-6c0.3-0.8,0.6-1.5,1-2.3
		c0.7-1.5,1.3-3.1,1.8-4.6c0.3-0.8,0.6-1.5,1-2.3c0.6-1.1,1.3-2.1,1.9-3.2c0.9-1.9,1.5-4,2.3-5.9
		C474.9,446.6,476.2,442.6,480.3,440.7z"/>
	<path fill="#FFFFFF" d="M615.7,414.9c5-8,13.7-4.3,20.4-5.5c16.1-2.7,32.6-2.9,48.8-5c9.1-1.2,11.5,2.6,10.7,10.5
		c0.1,0.5,0.1,0.9,0.2,1.4c0.3,1.9-0.1,3.7-0.7,5.5c-0.6,1.7-1.4,3.4-2,5.1c-1.3,3.4-1.8,7-3,10.4c-0.3,1.3-0.8,2.6-1.3,3.9
		c-1.5,3.8-2.7,7.8-3.9,11.7c-0.3,0.9-0.6,1.7-1,2.6c-1.9,3.7-3.8,7.4-5,11.4c-0.3,0.9-0.6,1.7-1,2.6c-0.7,1.7-1.3,3.4-1.9,5.2
		c-0.3,0.9-0.7,1.8-1.1,2.6c-1.4,2.6-3,5-5.9,6.2c-12.1-0.4-5.6,6.8-4.8,11.7c-0.3,1.7-1.4,2.6-3,3c-7.5-1.6-14.8-2.4-18.3-11.5
		c-1.3-3.6-7.4-5-11.1-7.6c-2.1-3.6-3.3-7.5-4-11.6c-2.5-4.2-1.2-9.2-3.2-13.5l0,0c-2.3-4.6-3.3-9.7-4.9-14.6
		c-0.5-1.5-0.6-3-1.3-4.5c-1.7-3.9-2.3-8-3.5-12C614.5,420,614.9,417.4,615.7,414.9z"/>
	<path fill="#FFFFFF" d="M321.4,395.6c15.8,4.4,29.8,13.1,44.9,19.3c4.1,1.7,6.8,5.1,12.3,4.6c6.2-0.6,8.7,4.9,9.8,10.5
		c0.8,1.4,0.7,3.2,1.5,4.6l0,0c1.8,1.4,2.8,3.2,3.2,5.4c1.1,5.1,2.3,10.1,3.8,15.1c0.9,4.9,2.2,9.8,3.7,14.5c0.7,1.8,1.4,3.6,2,5.5
		c0.9,2.7,1.3,5.6,2.3,8.3c0.7,2.2,1.3,4.5,2.1,6.7c0.4,1.3,0.8,2.7,1.1,4c0.6,3.6,1.9,7,3.2,10.3c0.7,1.6,1.4,3.3,2.1,4.9
		c0.8,2.1,1.4,4.2,2.3,6.2c0.9,2,1.8,4.1,2.1,6.3c0.3,1.7-1.2,3.5,0.4,5c-8,2.3-14.5-2.3-21-5.1c-13.2-5.7-25.9-12.5-38.8-18.9
		c-2.4-3.6-3.3-7.5-3.1-11.7c0-1.2,0.2-2.3,0.5-3.5c2.9-7.6-0.1-15.9,3-23.4c0.5-2.1,0.6-4.4,1.3-6.5c0.5-6.4,5.2-11.6,5.7-18
		c2.1-2.1,2.2-4.8,2-6.9c-0.8,1.2,0.6,3.8-1.1,5.5c-2.5,1.8,0.7,6.8-4.2,7.2c-1-0.4-2.4-0.9-2.6-1.7c-1.9-13.4-14.4-18.6-21.5-27.9
		c-3.3-4.2-7.6-4.8-12.3-4.4c-3.1,0.3-4.1,2.4-4.5,5.1c-0.2,0.9-0.5,1.7-0.7,2.6c-0.4,1.3-0.9,2.6-1.5,3.9c-0.4,0.9-0.9,1.7-1.6,2.4
		c-0.9,0.5-1.8,0.5-2.8,0.1c-1.7-1.3-2.3-3.2-2.6-5.2c-0.3-3.4-0.4-6.8,0.5-10.2c0.8-2.6,2.6-4.8,3-7.6
		C316.8,399.8,317.7,396.6,321.4,395.6z"/>
	<path fill="#FFFFFF" d="M794.8,412.9c-9.6,11.7-22.9,18.9-34.7,27.9c-0.7,0.8-1.5,1-2.4,0.4c-2-3.5,1.1-5.9,2-8.7
		c0.5-0.4,0.6-0.9,0.2-1.4c-0.3,0.6-0.1,1.3-0.6,1.9c-2.5,4.1-2.7,9.7-7.4,12.5c-1.9,2.4-3.2,5.3-6.4,6.4c-7.7,6.4-15.3,0.3-22.9,0
		c-0.8-0.5-1.5-1.2-2-2c-0.6-1.3-0.9-2.7-1-4.1c0-2.2-0.4-4.4-1.4-6.4c-0.3-0.8-0.6-1.7-0.8-2.6c-0.2-0.9-0.3-1.8-0.4-2.7
		c-0.1-2.6-0.3-5.3-1.5-7.7c-0.7-1.7-1.5-3.3-2.1-5c-0.8-2.7-1.3-5.4-2.1-8.1c-1-2.3,1.1-4.6-0.2-6.9c3.1-4.6,7.8-2.5,11.7-2.5
		c19.7,0,38.8-2.9,57.3-9.6c5.3-1.9,9.7-1.6,12.9,3.6C799.2,402,797.8,407.4,794.8,412.9z"/>
	<path fill="#FFFFFF" d="M325.6,486.1c-17.6-9.1-32.6-21.9-48.3-33.8c-1.6-1.2-3.7-2.4-3.2-5.1c2-2.8,1.2-5.6,0.1-8.4
		c-0.6-1.9-0.6-3.9-0.3-5.8c0.4-2.3,1.3-4.5,2.3-6.6c0.7-1.5,1.6-3,2.4-4.5c0.7-1.4,1.3-2.8,1.6-4.4c0.2-1.1,0.4-2.2,0.7-3.3
		c0.2-0.7,0.4-1.5,0.7-2.2c0.4-1.1,0.7-2.2,0.9-3.3c0.1-1.2,0.3-2.4,0.6-3.6c0.2-0.8,0.5-1.6,0.8-2.4c1.1-2.3,2.1-4.5,3.5-6.6
		c0.5-0.7,1-1.3,1.5-1.8c1.1-1.1,2-2.3,2.8-3.6c0.5-0.6,1.1-1.1,1.7-1.5c10.9-7.5,13.4,2,17.3,8.6c1.5,1.7,2.6,3.7,2.7,6
		c0.2,2.2-0.6,4.3-0.6,6.5c0,3.7,1.5,7.2,1,10.9c-0.1,4.2,1.5,8,2.7,11.8c0.4,1.4,1.7-0.6,0.4,0c-0.5,0.3-0.8,0.1-0.9-0.6
		c-0.2-2.3-1.5-4.8,1-6.8l0.1,0c10,2,5.3,8.8,4.7,14.3c-2.9,6.1,0.2,11.7,1.4,17.4c0.8,2.8,1,5.7,2,8.5c0.8,2.7,1,5.7,2.2,8.3
		c0.4,0.9,0.8,1.8,1.1,2.7c0.9,2.4,1.3,4.9,0.3,7.4C328.3,485.8,327.6,487.2,325.6,486.1z"/>
	<path fill="#FFFFFF" d="M699.4,410.6c2.3-4.1,4.4-9.1,9.2-2.1c2.6,1,3.1,3.6,3.9,5.8c0.9,2.3,1.5,4.7,1.6,7.2c0.8,2.4,2,4.6,2.8,7
		c0.3,3.2,0.4,6.4,1.4,9.4c2,4.2,0.2,9.2,2.9,13.2c2.5,6.9-1.1,13.2-1.7,19.7c-18.1,12.2-35,26.4-55.5,34.7
		c-0.8,0.4-1.7,0.5-2.6,0.2c-1.4-1.6-0.9-3.4-0.3-5.1c0.3-0.8,0.8-1.6,1.4-2.3c1.5-1.1,2.1-2.7,2.3-4.5c0.6-2.6,2-4.9,3-7.3
		c0.4-0.8,0.8-1.6,1.4-2.3c3.1-2.3,3.6-6.1,5.2-9.3l-0.1,0.1c2-1.7,0.3-4.8,2.2-6.6l-0.1,0.1c2.2-5,4.4-10.1,6.5-15.2l-0.1,0.1
		c2.4-4.1,2.7-9,5.2-13c0.3-1.4,0.2-2.8,0.5-4.1c2.3-3,1.9-7,3.6-10.2c0.4-1.7,1.1-3.3,2.2-4.7c0.5-1.6,1-3.2,1.8-4.8
		c0.5-0.7,1-1.4,1.5-2c0.5-0.5,0.6-1.1,0.4-1.8C698.6,412.4,699.1,411.5,699.4,410.6z"/>
	<path fill="#FCFDFF" d="M243.8,376.1c16.6,0.1,32.8,1.4,47.4,10.6c-0.8,3.1-0.6,6.5-3.2,8.9c-1.2,2.9-3,5.7-4.1,8.7
		c-0.1,0.9-0.2,1.8-0.2,2.8c-0.5,2.3-1.6,4.4-2.1,6.7c-1.2,4.1-1.4,8.6-4.1,12.2c-0.5,2.4-2.4,4.3-2.3,6.9c0.1,3.1-1.1,5.8-2.8,8.2
		c-2,4.2-4.1,4.5-7.9,1.4c-6.4-5.2-11.4-11.2-14.5-18.8c-2.1-2.2-3.8-4.7-4.6-7.7c-1-2.9-1.8-5.8-2-8.8c-0.1-2.5-0.5-4.9-1.3-7.3
		c-0.3-1-0.5-2-0.6-3c-0.3-2.1-0.3-4.2-0.4-6.4c0-2.8-0.1-5.5,0.1-8.3C241.3,379.9,242,377.8,243.8,376.1z"/>
	<path fill="#FFFFFF" d="M392.2,434.3c0.8-6.7,2.4-9.5,10.9-7.2c23.7,6.5,48,10.1,72.8,9.6c3.6,4,1.2,7.7-0.6,11.4
		c-1.5,2.6-2.9,5.3-3.7,8.2c-0.7,1.3-0.8,2.9-1.9,4l0.2-0.2c-1.6,1.8-1.3,4.5-3,6.3c-0.2,0.9-0.5,1.7-0.8,2.6
		c-1.1,1.4-1.7,3.1-2.2,4.8c-1.1,2.9-2.1,5.8-3.1,8.6c-0.7,2.1-1.4,4.2-2.7,6c-0.1,0.9-0.2,1.8-0.3,2.7c-1.1,2.5-2.2,5-2.4,7.8
		c-1.2,1.5-1.8,3.3-2.3,5.1c-1.4,3.6-1.8,7.5-3.7,10.9c-0.2,1.9,0.4,4-1.1,5.6l0.1-0.1c-0.9,0.8-1.8,1-2.9,0.6
		c-2-0.9-4.3-2.6-4.2-4.5c0.4-17.7-5.6-36.4,8.2-52c3.3-3.7,7.5-7.7,5.2-13.1c-2.5-6.1-9.1-6.7-14.5-7.1c-6.3-0.5-12.7,1.1-19,1.7
		c-5.4,0.5-7.8,4.4-8.2,9.6c-0.4,4.9,0.6,10-2,14.7c-5.5,2.5-5.5-2.1-5.9-5.1c-0.6-4.4-2.4-7.2-7-7.8c-1-0.4-1.7-1.1-2.2-2
		c-2.9-5.1-2.3-11.1-4.1-16.5C391.4,437.2,391.1,435.7,392.2,434.3z"/>
	<path fill="#FFFFFF" d="M353.7,498.9c-10.1-0.9-17.4-6-22-15c-1.4-1.5-3.1-2.8-2.7-5.2c0.1-0.7,0.8-0.8,1.3-1
		c-0.5-0.4-1-0.3-1.5,0.5c-0.9-0.1-1.5-0.6-1.9-1.3c-0.1-0.8-0.3-1.6-0.6-2.4c-0.9-2.4-1.8-4.9-1.9-7.5c-1-1.9-2.4-3.8-1.8-6.2
		c0.4-0.8,1.1-1.3,2-1.4c1.3,1.1,2.4,1.1,3.5-0.3c1.3-0.5,2.7-0.5,4.1-0.3c1.4,0.3,2.7,0.8,4,1.3c1.8,0.8,3.3,2,4.5,3.6
		c2.2,2.7,2.4,9.5,8.5,4.2c3.1-1.5,6.2-1.9,9.1,0.5c1.9,5-0.6,9.9-0.4,14.9c0.1,2.3-1,4.3-1,6.6C357,493.3,356.4,496.5,353.7,498.9z
		"/>
	<path fill="#F9F8F7" d="M243.8,423.7c-8.1-9.3-22.6-13.8-21.7-29.6c-1.5-1.6-1.8-3.6-1.5-5.7c0.3-2,1.2-3.8,1.9-5.5
		c0.7-1.7,1.3-3.5,1.9-5.3c0.5-1.4,1.4-2.4,2.4-3.4c4.2,0.1,8.4,0.2,12.6,0.2c2.7,2.3,2.1,5.8,3.3,8.7c0.3,2.6,0.1,5.2,0.2,7.8
		c0,2,0,4.1,0,6.1c0,1.5,0.1,3,0.7,4.4c0.4,2,0.8,3.9,1.4,5.8c-0.2,3.6,0.8,7,2.1,10.4c0.6,2.1,0.9,4.2-0.5,6.1
		C245.7,424.6,244.7,424.6,243.8,423.7z"/>
	<path fill="#F2F1F1" d="M796.6,389.2c7.9-3.6,15.8-7.3,23.8-10.9c1.6-1.1,2.4,0,3.1,1.2c0.2,0.9,0.5,1.8,0.9,2.6
		c0.3,1.4,0.1,2.8-0.6,4c-0.3,0.3-0.7,0.7-1,1c-6,9.8-13.7,17.9-23.8,23.6C793.1,404.1,796,396.5,796.6,389.2z"/>
	<path fill="#FFFFFF" d="M420.4,526.8c-0.7-0.8-1.4-1.6-2.1-2.3c-0.8-0.5-1.2-1.3-1.2-2.2c-0.3-2.3-2-4-2.4-6.3
		c-1.6-1.9-1.9-4.2-2.2-6.5c-1.4-2.6-3.1-5.1-4-8c-0.2-2.6-1.2-5.4,1.5-7.5c13.5-1.5,16.4,0.4,18.5,13.6c1.5,9.4,2.4,18.7,14.6,20
		c1.1,0.7,1.7,1.6,1.8,2.8c0.1,1.2-0.3,2.3-1.2,3.2c0,0,0.3-0.4,0.3-0.4c-8.3,4.3-14.9-0.6-21.8-4.1
		C421.9,528.2,421.1,527.5,420.4,526.8z"/>
	<path fill="#FFFFFF" d="M633.2,477.4c5.3,4,14.9,2.9,15,13.7c0,1.7,9.5,2.1,13.5,5.8c0.5,0.6,0.7,1.4,0.6,2.2
		c0,0.8-0.2,1.6-0.5,2.3c-1,1.2-1.5,2.7-2.1,4.2c-0.8,0.9-2,1.2-2.5,2.3c-2,3.3-5.1,5.3-8.8,6.1c-2.5-1.4-3.5-3.8-3.2-6.3
		c0.5-6.2-3.4-8-8.2-9.3c-3.6-1.6-1.6-5.8-3.6-8l0,0.1c-1.9-2.5-0.7-5.5-1.2-8.2C631.8,480.5,631.9,478.8,633.2,477.4z"/>
	<path fill="#F6F6F5" d="M226.8,378.4c-0.5,1.5-1.1,2.9-1.6,4.4c-2.6-0.2-1.5,2.7-3,3.5c-2.2,3.5-1.8,8-4.1,11.4
		c-6.4-0.9-9.6-5.9-13.4-10.3c-0.1-3.3-0.7-6.6-1.4-9.9c-0.3-2.1,0.4-3.9,1.8-5.5c6.7-1.2,13.3-0.7,19.7,1.9
		C226,375.1,225.3,377.2,226.8,378.4z"/>
	<path fill="#101010" d="M121.4,323.2c20.7,0,41.4,0,62.1,0c-20.6,5.1-41.3,2.7-62,3.5C121.4,325.5,121.4,324.3,121.4,323.2z"/>
	<path fill="#E8E6E5" d="M205.7,378.4c2.5,3.3,2.7,6.3-0.9,8.9c-8.4-5.1-15.2-11.8-20.9-19.7c0.3-0.3,0.6-0.6,0.8-0.9
		c1.2-0.2,2.5-0.1,3.3-1.2c4.9,1.2,9.9,2.2,13.5,6.2c1.9,2.1,3.4,4.3,2.3,7.3c0.3,0,0.7,0,1,0C204.1,377.9,206.9,379,205.7,378.4z"
		/>
	<path fill="#FFFFFF" d="M721.7,449.3c8.1-1.4,15.4,5.2,23.6,2.3c-5.8,4.3-11.6,8.5-17.4,12.8c-1.5-0.4-2.9-1.1-4.2-2.1l-0.5,0.4
		C720.6,458.4,719.2,454.1,721.7,449.3z"/>
	<path fill="#EAE8E8" d="M826.6,380.5c1-1.9,1.5-4.4,3-5.6c4.8-3.7,12.5-10.3,15.7-6.8c4.4,4.9-5.1,7.4-8.2,11.2
		c-3.3,4-8,6.9-12.2,10.2c-0.7-0.4-1.1-1-1.1-1.8c0-0.8,0-1.5,0.1-2.3c0.3-1.1,0.8-2.1,1.4-3.1C825.7,381.7,826.2,381.1,826.6,380.5
		z"/>
	<path fill="#FFFFFF" d="M637.2,496.8c16.9-2.9,8.5,10.8,11.2,17.1c-5.5,4.7-7.7,1.4-9-3.8c-2.9-2.3-3-5.4-2.8-8.7
		C636.5,499.9,636.3,498.3,637.2,496.8z"/>
	<path fill="#CECECE" d="M312.9,421.5c-0.6-3.7-1.3-7.4-1.9-11.1c1.4-2.2,0.6-4.7,0.8-7c0.1-1.9-0.4-3.9,0.7-5.7
		c0.8-1.4-0.3-4.1,2.6-4.2c2.9,3,2,6.5,1.2,10c0.1,1.8,0,3.5-1.1,5c0,4.3,0,8.6,0,12.9C314.3,422.5,313.6,422.5,312.9,421.5z"/>
	<path fill="#BFBEBF" d="M895.7,341.5l-0.8,0.6l-1,0c-0.9,0.5-1.7,1-2.5,1.5c-2.5,2.3-5.3,4.1-8.7,4.4c-0.7-0.5-1-1-0.7-1.5
		c0.2-0.5,0.5-0.7,0.7-0.7c-0.7-2.1,4-1.3,2.3-4.1c-0.8-0.7-1.5-1.4-2.5-1.8c-1.3-0.2-2.6-0.5-3.9-0.7c0-0.4,0-0.8,0-1.2
		c2.9,0,5.8,0.1,8.6,0.1c1.5,0.7,3.2,0.6,4.6,1.4c1.3,0.2,2.6,0.5,3.9,0.7C895.7,340.7,895.7,341.1,895.7,341.5z"/>
	<path fill="#3C3C3C" d="M796.6,389.2c0.7,7.2-1.2,14.7,2.4,21.5c-1.4,0.7-2.8,1.4-4.2,2.2c-0.2-5.1,0.4-10.4-1.9-15.2
		C794.1,394.8,795.3,392,796.6,389.2z"/>
	<path fill="#818081" d="M751.8,445.3c2.9-5.1,5.7-10.1,8.6-15.2l0.7-0.8l0.8,0.6c0.8,3.8-5.2,6.4-1.8,10.6c-0.6,0.9-2,0.9-2.1,2.3
		C756.6,445.5,753.9,444.6,751.8,445.3z"/>
	<path fill="#707070" d="M721.7,449.3c0.5,4.4,1,8.9,1.5,13.3c-1.3,2.8-2.5,5.6-3.8,8.4c0-7.2,0-14.4-0.1-21.6
		c0.6-0.7,1.2-0.6,1.7,0.2L721.7,449.3z"/>
	<path fill="#FFFFFF" d="M315,404.3c0-3.6,0-7.2,0-10.7c2.6-0.6,4.7,0,6.4,2.1c-1.4,2.9-2.9,5.7-4.3,8.6
		C316.4,405.1,315.7,405.1,315,404.3z"/>
	<path fill="#141414" d="M854.8,360.8c2.3-4.3,7.4-3.6,10.7-6c0.7,0.5,0.9,0.9,0.7,1.4c-0.2,0.5-0.4,0.7-0.6,0.7
		c-3,2.8-5.9,5.6-8.9,8.5C855.5,364.1,854.8,362.6,854.8,360.8z"/>
	<path fill="#414141" d="M474,449.2c0.5-4.2,4.4-7.9,1.9-12.5c3.2-0.6,2.8,2.9,4.4,3.9c-2,4-4,8-6,12
		C473.3,451.6,473.1,450.5,474,449.2z"/>
	<path fill="#B2B1B1" d="M149.5,339.3c-2.7-0.9-5.1-2.4-5.2-5.4c0-0.7,2-2.1,3.3-2.3c4.4-0.7,2.2,4.2,4.3,5.6
		c-0.1,0.4-0.2,0.8-0.2,1.1C150.9,338.6,150.2,339,149.5,339.3z"/>
	<path fill="#676767" d="M353.7,498.9c0.8-2.8,1.6-5.6,2.3-8.5c0.6-1.2,1.2-1.2,1.8,0c0.2,4.2,0.3,8.3,0.5,12.5
		C356.8,501.6,355.3,500.3,353.7,498.9z"/>
	<path fill="#A9A8A8" d="M218.1,397.6c-0.3-5,0.9-9.4,4.3-13.2c1.1,0.8,1.2,1.8,0.2,2.8c-0.2,2.3-0.3,4.6-0.5,6.9
		C220.7,395.3,219.4,396.5,218.1,397.6z"/>
	<path fill="#6B6B6B" d="M241.7,382.8c-0.8-2.8-1.5-5.6-2.3-8.4c1.5,0.6,2.9,1.2,4.4,1.7c-0.1,2.2-0.2,4.4-0.3,6.6
		C243,383.8,242.4,383.9,241.7,382.8z"/>
	<path fill="#5F5F5F" d="M205.7,378.4c-0.3,1.9-0.6,3.8-1.3,8.3c-1.3-6.7-2-10.9-2.8-15c1.2,0.1,2.4,0.1,3.6,0.2
		C205.3,374.1,205.5,376.2,205.7,378.4z"/>
	<path fill="#181718" d="M286.8,395.6c0.8-3.3,1.5-6.6,4.3-8.9c0.8,0.8,1.5,1.7,2.3,2.5c0,0.6,0,1.3-0.1,1.9c-1.2,1.3-0.7,3.7-3,4.2
		l-0.6,0l-0.5,0.4C288.5,396.5,287.6,396.4,286.8,395.6z"/>
	<path fill="#AFAFAF" d="M183.8,367.6c-5.6-0.5-3-3.7-2.1-6.4l-0.2,0.2c3.3-0.5,4.2,1.7,4.9,4.2c-0.6,1.1-2,1.4-2.8,2.3L183.8,367.6
		z"/>
	<path fill="#616161" d="M615.7,414.9c0.3,2.9,0.6,5.8,0.9,8.7c0.3,2.1-0.4,2.8-2.5,2c-0.6-2.2-1.3-4.3-1.9-6.5
		C613.3,417.7,614.5,416.3,615.7,414.9z"/>
	<path fill="#434343" d="M246.7,423.5c-0.3-2-0.5-4.1-0.8-6.1c-1-2.2,0-2.4,1.8-2c0.7,2.8,1.5,5.6,2.2,8.3c0,0-0.5,0.1-0.5,0.1
		l-0.5-0.3C248.1,424.3,247.4,424.3,246.7,423.5z"/>
	<path fill="#9D9D9D" d="M637.2,501.1c0.7,3,1.5,6,2.2,9c-0.6,0.6-1.2,1.1-1.8,1.7c-3.1-3.2-2.4-7-1.9-10.8
		C636.2,500,636.7,500.1,637.2,501.1z"/>
	<path fill="#4B4B4B" d="M711.2,414.7c-0.9-2.1-1.7-4.1-2.6-6.2c0.8-0.8,1.6-1.7,2.4-2.5c2.2,1.6,2.1,4.1,2.3,6.4
		C714.2,414.8,713.1,415.1,711.2,414.7z"/>
	<path fill="#747474" d="M272.4,441.1c0.6-2.9,1.3-5.9,1.9-8.8c0.6-1,1.3-1.1,1.9,0c0,2-0.1,4-0.1,6c-0.6,1.1-0.7,2.5-2.3,2.8
		l-0.7,0.2L272.4,441.1z"/>
	<path fill="#FFFFFF" d="M723.8,462.3c2.3-1.1,4.2-1.4,4.2,2.1c-1.1,0.6-2.2,1.2-3.4,1.8C724.3,464.9,724,463.6,723.8,462.3z"/>
	<path fill="#262525" d="M496,447.1c-0.9-2.1-1.8-4.1-2.7-6.2c1.6-0.7,3.1-1.4,4.7-2.2c0,2.8-0.1,5.7-0.1,8.5
		C497.2,448.1,496.6,448.1,496,447.1z"/>
	<path fill="#3A3B3B" d="M328.2,477.3c0.6,0,1.2,0.1,1.8,0.2l0,0c0.6,2.1,1.2,4.3,1.8,6.4c0,0-0.8,0.1-0.8,0.1l-0.8-0.2
		c-0.7,1.1-1.5,1-2.2-0.1c-0.6-2.1-1.2-4.3-1.8-6.4C326.8,476.3,327.5,476.3,328.2,477.3z"/>
	<path fill="#5C5C5D" d="M179.6,361c-2.3-0.5-3.6-2-4.5-4.1c-0.6-0.3-0.8-0.6-0.6-1c0.2-0.4,0.4-0.5,0.5-0.5
		c1.9,0.6,3.8,1.4,4.3,3.6c0.5,0.4,0.7,0.9,0.6,1.3C179.9,360.7,179.8,361,179.6,361z"/>
	<path fill="#8A8989" d="M529.9,543.8c0.1-2.1,0.1-4.1,0.2-6.2c0.8-0.9,1.4-0.8,2,0.2c0.7,1.5,1.4,2.9,2.1,4.4
		C532.8,543,531.9,544.8,529.9,543.8z"/>
	<path fill="#878686" d="M854.6,365.1c-1.4,0.3-2.2,3.5-4.1,1.4c-1.6-1.9-0.1-3.1,1.9-3.6C854.5,362.3,855.2,363.1,854.6,365.1z"/>
	<path fill="#B7B7B7" d="M151.8,337.2c1.4,1.2,2.7,2.5,4.1,3.7c1,0.9,1,1.9,0,2.8c-1.5-1.2-3-2.4-4.5-3.6c-0.5-0.4-0.6-0.8-0.6-1.3
		c0.1-0.5,0.2-0.7,0.3-0.7C151.4,337.8,151.6,337.5,151.8,337.2z"/>
	<path fill="#A09FA0" d="M162.3,347.7c-1.5-0.9-2.9-1.8-4.4-2.7c-0.9-1-0.9-2,0-3c2.1,0.5,3.8,1.5,4.5,3.7c0.4,0.4,0.6,0.9,0.4,1.3
		C162.6,347.5,162.5,347.7,162.3,347.7z"/>
	<path fill="#ADADAD" d="M596.6,423.4c-0.8,2.1-1.5,4.2-2.3,6.3c-0.8,0.4-1.6,0.8-2.2-0.2c-0.2-0.4,0-1,0.3-1.6
		c0.8-1.4,1.6-2.9,2.4-4.3C595.4,423.6,596,423.5,596.6,423.4z"/>
	<path fill="#FCFDFF" d="M273.8,441c0.8-0.9,1.5-1.9,2.3-2.8c-0.1,3.1,1.1,6.6-2,9C274,445.2,273.9,443.1,273.8,441z"/>
	<path fill="#424343" d="M173.1,354.8c-2.2,0-4.1-0.3-5-2.7c-0.1-0.2,0.4-0.8,0.6-0.8C171.2,351.2,172.3,352.8,173.1,354.8
		L173.1,354.8z"/>
	<path fill="#8D8D8D" d="M328,483.8c0.7,0,1.4,0,2.2,0.1c-0.3,1.5,0.7,3.7-1.5,4.1c-0.9,0.2-2-1.2-3-1.8
		C326.4,485.3,327.2,484.6,328,483.8z"/>
	<path fill="#B8B8B9" d="M657.2,507.9c0.2-0.9,0.5-1.7,0.7-2.6c1.2-1.2,2.3-1.2,3.5,0c0.8,0.1,1.7,0.3,2.5,0.4
		C662.3,508.4,659.9,508.4,657.2,507.9z"/>
	<path fill="#BEBDBD" d="M880.7,348.3c-0.6,2.4-2.5,2.1-4.3,2.1l0.2,0.2c-0.2-3.1,2.4-3.1,4.3-4c0.6,0.4,0.8,0.8,0.5,1.1
		C881.1,348.1,880.9,348.3,880.7,348.3z"/>
	<path fill="#3F3F3F" d="M312.4,397.7c0,2,0.1,4,0.1,6c-0.2,0.5-0.4,1.1-0.6,1.6c-0.3-0.5-0.6-1-0.9-1.5c-0.1-2-0.2-4.1-0.2-6.1
		C311.3,397.6,311.9,397.6,312.4,397.7z"/>
	<path fill="#616060" d="M854.6,365.1c-0.7-0.7-1.4-1.5-2.2-2.2c0.8-0.7,1.6-1.4,2.4-2.2c2.1,0.9,2.2,2.7,1.9,4.6
		C856,365.3,855.3,365.2,854.6,365.1z"/>
	<path fill="#515151" d="M392.2,434.3c0.2,1.4,0.4,2.9,0.5,4.3c0.4,2-0.3,2.8-2.3,1.9c-0.1-2-0.3-4-0.4-6
		C390.7,434.5,391.5,434.4,392.2,434.3z"/>
	<path fill="#838283" d="M822.9,380.7c-0.9-0.8-1.7-1.6-2.6-2.5c3.8-3.7,4.5-1.3,4.6,2.3C824.3,381.2,823.6,381.3,822.9,380.7z"/>
	<path fill="#B1B1B2" d="M226.8,378.4c-2.3-0.8-2-2.7-1.9-4.6c0.7,0.1,1.3,0.2,2,0.4C226.8,375.6,226.8,377,226.8,378.4z"/>
	<path fill="#616161" d="M872.1,352.5c-0.6,2.4-2.5,2.2-4.3,2.2l0.1,0.1c0.8-2.1,2.4-2.3,4.3-2.1L872.1,352.5z"/>
	<path fill="#535454" d="M183.7,367.8c0.9-0.8,1.9-1.5,2.8-2.3c0.5-0.4,1-0.4,1.5,0C187,367,185.8,368.3,183.7,367.8z"/>
	<path fill="#BFBDBD" d="M895.7,341.5c0-0.4,0-0.8,0-1.2c1,0.2,1.9,0.4,2.9,0.6C897.7,341,896.7,341.3,895.7,341.5z"/>
	<path fill="#8B8C8C" d="M876.4,350.4c-0.4,2.7-2.4,2.3-4.3,2.2c0,0,0.1,0.1,0.1,0.1c0.5-2.6,2.3-2.6,4.3-2
		C876.5,350.6,876.4,350.4,876.4,350.4z"/>
	<path fill="#5C5C5C" d="M822.9,380.7c0.7-0.1,1.3-0.2,2-0.1c0.6-0.1,1.1-0.1,1.7-0.1c0.2,0.7,0.3,1.3,0.2,2
		c-0.5,0.6-1.1,1.1-1.9,1.3c-0.8,0.1-1.5-0.2-2-0.9C822.9,382.1,822.9,381.4,822.9,380.7z"/>
	<path fill="#535454" d="M418.3,522.5c0.6,0.6,0.6,1.3,0,1.9c0,0.8-0.1,1.7-0.1,2.5c-0.7-1.4-1.4-2.9-2-4.3
		C416.8,521.5,417.5,521.5,418.3,522.5z"/>
	<path fill="#BFBDBD" d="M891.9,339.6c-1.5-0.5-3.1-1-4.6-1.4C888.8,338.6,890.3,339.1,891.9,339.6z"/>
	<path fill="#D9D9D8" d="M824.6,386.6c0.1,1,0.2,1.9,0.3,2.9c-0.6,0.4-1.3,0.8-1.9,1.2c-0.1-1.2-0.1-2.4-0.2-3.6
		c0,0-0.3,0.1-0.3,0.1C823,386.3,823.7,386.1,824.6,386.6z"/>
	<path fill="#CFCFCE" d="M758,442.9c-1.7-2.9,0.9-1.9,2.1-2.3c0,0,0,0.1,0,0.1C759.4,441.5,758.7,442.2,758,442.9z"/>
	<path fill="#B2B2B3" d="M246.7,423.5c0.8,0,1.5,0,2.3,0.1c-1.6,3.6-3.3,3.4-5.1,0.2C244.8,423.7,245.7,423.6,246.7,423.5z"/>
	<path fill="#515151" d="M390,434.6c-1.9-1.1-2-2.8-1.5-4.6C390.3,431.1,390.8,432.6,390,434.6z"/>
	<path fill="#A8A7A7" d="M878.6,338c0.1,0.4,0.1,0.8,0,1.2c-0.5-0.2-1.1-0.4-1.6-0.6C877.5,338.4,878.1,338.2,878.6,338z"/>
	<path fill="#E9E9E9" d="M157.9,342.1c0,1,0,2,0,3c-0.7-0.5-1.3-0.9-2-1.4c0-0.9,0-1.9,0-2.8C156.6,341.3,157.2,341.7,157.9,342.1z"
		/>
	<path fill="#535454" d="M420.4,526.8c0.6,0.8,1.3,1.6,1.9,2.3C421,528.9,420.2,528.2,420.4,526.8z"/>
	<path fill="#AAABAB" d="M162.3,347.7c0-0.6,0.1-1.3,0.1-1.9c0.6,0.6,1.1,1.2,1.7,1.8C163.5,347.6,162.9,347.7,162.3,347.7z"/>
	<path fill="#E4E4E4" d="M151.1,338.1c0,0.7,0.1,1.4,0.3,2c-0.7-0.1-1.4-0.3-1.9-0.8C150.1,338.9,150.6,338.5,151.1,338.1z"/>
	<path fill="#3F4040" d="M699.4,410.6c-0.5,0.9-0.9,1.7-1.4,2.6C698.5,412.3,699,411.5,699.4,410.6z"/>
	<path fill="#3B3B3B" d="M865.6,356.9c0-0.7-0.1-1.4-0.1-2.2c0.8,0,1.5,0,2.3,0c0,0-0.1-0.1-0.1-0.1
		C867.1,355.4,866.4,356.2,865.6,356.9z"/>
	<path fill="#E3E2E2" d="M880.7,348.3c0.2-0.5,0.2-1.1,0.1-1.7c0.7-0.3,1.3-0.6,2-0.9c0,0.7,0,1.5,0,2.2
		C882.1,348.1,881.4,348.2,880.7,348.3z"/>
	<path fill="#8A8A8A" d="M179.6,361c-0.1-0.7-0.1-1.4-0.2-2c0.7,0.8,1.4,1.6,2.1,2.4c0,0,0.2-0.2,0.2-0.2c0,0-1.1,0.1-1.1,0.1
		L179.6,361z"/>
	<path fill="#A8A7A7" d="M882.5,339.9c0.8,0.6,1.7,1.2,2.5,1.8C884.2,341.1,883.3,340.5,882.5,339.9z"/>
	<path fill="#3F4040" d="M697.6,415c0.3,0.7,0.3,1.4-0.3,2c-1.9,0.4-2.8-0.3-2.2-2.3c0,0,0.3,0.2,0.3,0.2
		C696.2,414.8,696.9,414.9,697.6,415z"/>
	<path fill="#616262" d="M175.1,355.3c0,0.5,0,1,0.1,1.5c-0.7-0.7-1.4-1.4-2.1-2.1c0,0-0.1,0.1-0.1,0.1
		C173.7,355,174.4,355.2,175.1,355.3z"/>
	<path fill="#BFBDBD" d="M891.5,343.6c0.8-0.5,1.7-1,2.5-1.5C893.2,342.5,892.4,343.1,891.5,343.6z"/>
	<path fill="#FFFFFF" d="M616.1,486c0,0.7,0,1.4,0,2.2c0.8,0.7,1.4,1.5,2.2,2.2c1.1,1.8,2.5,3.2,4.3,4.3c1.7,2,4.7,0.2,6.5,2.2
		c1.4,0,2.8,0,4.2,0c0.6,0.3,0.8,0.7,0.7,1.1c-0.1,0.5-0.2,0.7-0.4,0.7c-0.1,1.6-0.1,3.1-0.2,4.7c-1.3,1.1-0.9,3.1-2.1,4.3
		c-1.7,2.2-3.3,4.4-6.5,2.2c-0.7,0-1.4,0-2.2,0c-1.4-1.3-2.9-1.3-4.3,0c-0.7,0-1.4,0-2.2,0c-5.1,3.9-12.8-2.6-17.2,4.3
		c0,0.7,0,1.4,0,2.2c1.3,1.1,0.8,3.2,2.2,4.3c0.4,0.5,0.6,1,0.4,1.4c-0.1,0.5-0.3,0.7-0.4,0.7c-1.1,1.8-2.6,3.2-4.3,4.3
		c-9.1-0.6-20,3.5-27-1.9c-7.5-5.7-0.6-17.7-5.2-26.1c-0.6-0.5-0.7-1-0.5-1.5c0.2-0.5,0.4-0.7,0.6-0.7c19.8,1.3,19.5-5.1,19.9-26.1
		c0.1-5.1-0.6-8.5,5.8-8.3c1.7-2,4.7-0.1,6.5-2.2c0.7-0.7,1.4-1.4,2.2-2.2c0.8-0.7,1.4-1.5,2.2-2.2c0-0.7,0-1.4,0-2.2
		c2.4-2.4-0.2-6.1,2.2-8.6c0.7,0,1.4,0,2.2,0c2.2-1.5,4.3-1.5,6.5,0c1.3,1.2,0.8,3.2,2.2,4.3c0,1.4,0,2.9,0,4.3
		c1.3,1.1,0.8,3.2,2.2,4.3c1.5,2.2,1.5,4.3,0,6.5c-2,1.7-0.2,4.7-2.2,6.5c0,2.9,0,5.7,0,8.6C616,481.3,614.1,484.3,616.1,486z"/>
	<path fill="#FFFFFF" d="M564.6,453.7c-0.9,15.1-5.2,26.5-15.4,34.9c-3.5,2.9-2,6.2-2.2,9.6c-0.3,4.8-0.4,11.1-6.6,12
		c-6.3,0.9-8.1-4-8.4-9.8c-0.2-4.4-3.3-7.9-7.5-7.6c-10,0.7-9-5.6-9.7-12.3c-0.9-9.9-3-19.5,0-29.5c1.6-5.7,3.7-7.8,9.6-6.7
		c9.2,1.7,18.7,2.1,27.6,0.1C562.9,441.9,564.1,447.9,564.6,453.7z"/>
	<path fill="#D2D2D2" d="M586,449.4c-2.2,5.3-4.4,10.5-6.6,15.8c-0.8-0.4-1.6-0.7-2.4-1.1c2.3-4.9,4.7-9.8,7-14.7
		C584.6,448.4,585.3,448.4,586,449.4z"/>
	<path fill="#E3E2E2" d="M515,505.4c-4.6-4.8-5.8-10.9-6.5-17.2c4.9,4.7,5,11.9,8.5,17.3C516.3,506.5,515.6,506.4,515,505.4z"/>
	<path fill="#CFCFCE" d="M633.2,477.4c0,1.4-0.1,2.9-0.1,4.3c-0.7,1-1.3,1-1.9-0.1c-2.9-4.6-3.9-9.8-4.3-15.1
		c0.7-0.7,1.4-0.7,2.1,0.1C630.4,470.3,631.8,473.8,633.2,477.4z"/>
	<path fill="#FFFFFF" d="M598.9,514c4-8.5,11.6-2.5,17.2-4.3C611.7,516.2,603.7,508.9,598.9,514z"/>
	<path fill="#D8D8D8" d="M620.5,438.7c2.8,4.6,3.9,9.7,4.2,15.1c-4.4-4.1-5-9.8-6.4-15.1C619.1,437.6,619.8,437.6,620.5,438.7z"/>
	<path fill="#BFBEBF" d="M532.1,537.8c-0.7-0.1-1.3-0.1-2-0.2c-3.7-3.5-5.5-8-6.6-12.9c0.8-0.9,1.5-0.9,2.2,0.1
		C527.8,529.1,529.9,533.5,532.1,537.8z"/>
	<path fill="#CBCACA" d="M614.1,425.6c0.8-0.7,1.6-1.3,2.5-2c1.2,3.7,2.3,7.4,3.5,11c-0.3,0.9-0.9,1.6-1.8,2
		C615.6,433.4,614.5,429.6,614.1,425.6z"/>
	<path fill="#E0E0E0" d="M564.6,496.8c0,0.7-0.1,1.5-0.1,2.2c-2.1,2.9-4.3,5.7-6.4,8.6c-0.7,1-1.4,1.1-2.1,0.1
		c2.6-4.5,3.3-10.2,8.5-13l0,0C564.5,495.3,564.6,496,564.6,496.8z"/>
	<path fill="#E7E7E7" d="M629,466.7c-0.7,0-1.4-0.1-2.1-0.1c-3.8-3.8-1.5-8.6-2.1-12.9C627.8,457.5,627.6,462.4,629,466.7z"/>
	<path fill="#D3D3D3" d="M525.7,524.8c-0.7,0-1.5-0.1-2.2-0.1c-3.4-2.8-4.4-6.6-4.2-10.8C522.9,516.7,523.7,521.1,525.7,524.8z"/>
	<path fill="#D5D4D4" d="M592.4,427.9c0.6,0.6,1.3,1.2,1.9,1.8c-1.3,3-2.7,6-4,9c-0.6-0.5-0.8-1-0.6-1.5c0.2-0.5,0.4-0.8,0.6-0.8
		C590.4,433.4,589.6,430.2,592.4,427.9z"/>
	<path fill="#E3E2E2" d="M508.6,488.2c-2.9-3-3.4-6.9-4.3-10.7c0.7-1.1,1.4-1,2.1-0.1C508.4,480.7,508.8,484.4,508.6,488.2z"/>
	<path fill="#A9AAAA" d="M633.5,498.5c0.1-0.6,0-1.2-0.3-1.8c0-2.1,0.1-4.3,0.1-6.4c1.3,2.2,2.6,4.4,3.9,6.5c0,1.4,0,2.9-0.1,4.3
		c-0.5,0-1,0-1.5,0C635,500.2,634.2,499.4,633.5,498.5z"/>
	<path fill="#888888" d="M500.3,464.4c-0.8-2.9-1.6-5.7-2.3-8.6c0.6-1,1.2-1,1.8,0c1.7,2.6,3,5.4,2.3,8.7
		C501.5,465.4,500.9,465.3,500.3,464.4z"/>
	<path fill="#959596" d="M500.3,464.4c0.6,0,1.2,0,1.8,0.1c2.5,2.4,2.1,5.6,2.2,8.6c-0.8,0.9-1.4,0.8-2.1-0.2
		C501.6,470.1,501,467.3,500.3,464.4z"/>
	<path fill="#D2D2D2" d="M556,507.6c0.7,0,1.4-0.1,2.1-0.1c-0.3,3.4-1.5,6.5-4.4,8.6l0,0C554.5,513.3,555.3,510.4,556,507.6z"/>
	<path fill="#666565" d="M499.8,455.8l-0.9,0.1l-0.9-0.1c-0.7-2.9-1.3-5.8-2-8.7c0.7-0.2,1.3-0.1,1.9,0.1
		C500.6,449.7,500,452.8,499.8,455.8z"/>
	<path fill="#BEBDBE" d="M543.1,535.5c1.4-2.2,2.7-4.4,4.1-6.6l0.1,0.1c0.1,2.4,0.2,4.9-2.2,6.4
		C544.5,536.1,543.8,536.2,543.1,535.5z"/>
	<path fill="#FFFFFF" d="M603.2,445.1c-0.3,3,0.9,6.3-2.2,8.6C601.3,450.7,600.2,447.4,603.2,445.1z"/>
	<path fill="#FFFFFF" d="M624.7,509.7c2.2-0.7,4.3-1.4,6.5-2.2C630.3,512,628.2,513.1,624.7,509.7z"/>
	<path fill="#C6C6C6" d="M631.2,481.7c0.6,0,1.3,0,1.9,0.1c0.1,2.9,0.2,5.7,0.3,8.6C630.3,488.1,631.3,484.8,631.2,481.7z"/>
	<path fill="#FFFFFF" d="M614,470.9c0-2.4-0.3-4.9,2.2-6.5C616.1,466.9,616.4,469.4,614,470.9z"/>
	<path fill="#FFFFFF" d="M596.8,526.9c1.4-1.4,2.9-2.9,4.3-4.3C600.9,525.3,599.5,526.7,596.8,526.9z"/>
	<path fill="#C8C8C7" d="M502.3,472.9c0.7,0.2,1.4,0.2,2.1,0.2c0.7,1.4,1.4,2.8,2.1,4.2c-0.7,0.1-1.4,0.1-2.1,0.1
		C503.6,475.9,502.9,474.4,502.3,472.9z"/>
	<path fill="#FFFFFF" d="M616.1,486c-2.4-1.6-2.1-4.1-2.2-6.5C616.4,481.1,616.1,483.6,616.1,486z"/>
	<path fill="#E0E0E0" d="M566.6,488.1c0,2.4,0.3,4.9-2.2,6.5c0,0,0,0,0,0C564.5,492.2,564.1,489.7,566.6,488.1L566.6,488.1z"/>
	<path fill="#FFFFFF" d="M622.6,494.6c-2.7-0.1-4.2-1.6-4.3-4.3C619.7,491.7,621.1,493.2,622.6,494.6z"/>
	<path fill="#FFFFFF" d="M629,496.8c-2.4,0-4.9,0.3-6.5-2.2C624.9,494.6,627.4,494.3,629,496.8z"/>
	<path fill="#FFFFFF" d="M616.1,464.5c0-2.2,0-4.3,0-6.5C618.8,460.2,618.8,462.3,616.1,464.5z"/>
	<path fill="#C9C9C8" d="M586,449.4c-0.7,0-1.4,0-2.1,0c0.7-1.4,1.4-2.8,2.1-4.3c0.6-1.1,1.2-1.1,1.8-0.1
		C587.3,446.5,586.6,448,586,449.4z"/>
	<path fill="#FFFFFF" d="M611.8,445.1c-2.2,0-4.3,0-6.5,0C607.5,442.4,609.7,442.4,611.8,445.1z"/>
	<path fill="#FFFFFF" d="M596.8,460.2c-1.6,2.4-4.1,2.1-6.5,2.2C591.9,459.9,594.4,460.2,596.8,460.2z"/>
	<path fill="#FFFFFF" d="M614,449.4c-0.7-1.4-1.4-2.9-2.2-4.3C612.5,446.6,613.2,448,614,449.4z"/>
	<path fill="#D4D4D4" d="M515,505.4c0.7,0,1.4,0,2,0.1c0.1,1.4,0.1,2.8,0.2,4.3C516.5,508.3,515.7,506.8,515,505.4z"/>
	<path fill="#FFFFFF" d="M631.2,507.5c0.7-1.4,1.4-2.9,2.1-4.3C632.6,504.6,631.9,506.1,631.2,507.5z"/>
	<path fill="#FFFFFF" d="M616.1,458c-0.7-1.4-1.4-2.9-2.2-4.3C614.7,455.2,615.4,456.6,616.1,458z"/>
	<path fill="#CAC9C9" d="M590.3,436.4c0,0.8,0,1.5,0,2.3c-0.7,0.7-1.5,1.4-2.2,2.1l0,0C588.9,439.4,589.6,437.9,590.3,436.4z"/>
	<path fill="#FFFFFF" d="M618.3,509.7c1.4-2.1,2.9-2.1,4.3,0C621.1,509.7,619.7,509.7,618.3,509.7z"/>
	<path fill="#CCCCCC" d="M519.4,514c-1.9-0.9-2.2-2.6-2.2-4.4C517.9,511.1,518.6,512.5,519.4,514z"/>
	<path fill="#C0C0C1" d="M587.9,445.1c-0.6,0-1.2,0-1.8,0.1c-0.1-1.8,0.3-3.4,2.1-4.3c0,0,0,0,0,0C588,442.2,588,443.7,587.9,445.1z
		"/>
	<path fill="#C4C4C4" d="M553.7,516.1c0,1.8-0.3,3.4-2.2,4.3l0,0C551.6,518.6,551.8,517,553.7,516.1
		C553.7,516.1,553.7,516.1,553.7,516.1z"/>
	<path fill="#FFFFFF" d="M601.1,520.4c-0.7-1.4-1.4-2.9-2.2-4.3C599.6,517.5,600.3,519,601.1,520.4z"/>
	<path fill="#C5C5C5" d="M549.5,524.8c0-1.8,0.2-3.5,2.1-4.3c0,0,0,0,0,0c0,1.8-0.3,3.5-2.2,4.3L549.5,524.8z"/>
	<path fill="#BABABB" d="M549.4,524.7c0,1.8,0,3.6-2,4.4c0,0-0.1-0.1-0.1-0.1c0-1.8,0.3-3.4,2.3-4.2
		C549.5,524.8,549.4,524.7,549.4,524.7z"/>
	<path fill="#BFBEBE" d="M618.2,436.6c0.6-0.7,1.2-1.3,1.8-2c0.2,1.4,0.3,2.7,0.5,4.1c-0.7,0-1.5,0-2.2-0.1
		C618.3,437.9,618.2,437.2,618.2,436.6z"/>
	<path fill="#DFDFDE" d="M566.6,488.1c0.3-0.9,0.5-1.8,0.8-2.7c0.3,0.2,0.5,0.3,0.8,0.5C567.7,486.7,567.2,487.4,566.6,488.1
		L566.6,488.1z"/>
	<path fill="#FFFFFF" d="M601.1,522.6c0-0.7,0-1.4,0-2.2c0.3,0.5,0.6,1,0.8,1.5C601.9,522.1,601.3,522.4,601.1,522.6z"/>
	<path fill="#9B9B9B" d="M543.1,535.5c0.7-0.1,1.4-0.1,2-0.1c-0.4,0.6-0.7,1.1-1.1,1.7C543.8,536.6,543.4,536.1,543.1,535.5z"/>
	<path fill="#FFFFFF" d="M618.3,490.3c-0.7-0.7-1.4-1.4-2.2-2.2C616.8,488.9,617.6,489.6,618.3,490.3z"/>
	<path fill="#FFFFFF" d="M601.1,455.9c-0.7,0.7-1.4,1.4-2.2,2.2C599.6,457.3,600.3,456.6,601.1,455.9z"/>
	<path fill="#FFFFFF" d="M598.9,458c-0.7,0.7-1.4,1.4-2.2,2.2C597.5,459.5,598.2,458.7,598.9,458z"/>
	<path fill="#A2A1A2" d="M459.5,481.9c1.2-3,2.5-6.1,3.7-9.1c1.3,0.2,1.4,1.5,2.1,2.3c-1.3,3-2.5,6-3.8,9
		C460.5,483.6,459.8,482.9,459.5,481.9z"/>
	<path fill="#C1C1C1" d="M448.7,514.2c1.2-3.7,2.5-7.4,3.7-11.1c1,0.4,1.7,1,2.2,2c-1.2,3-1.1,6.7-4.1,8.9
		C450,515,449.4,515,448.7,514.2z"/>
	<path fill="#9F9F9F" d="M444.2,531.4c-0.3-0.8-0.5-1.6-0.8-2.4c-1-3.5-0.1-6.4,2.8-8.6c0.7,0,1.5,0,2.2-0.1c0.6,4-0.1,7.8-2.5,11.2
		l-0.9,0.4L444.2,531.4z"/>
	<path fill="#7C7B7A" d="M474,449.2c0.1,1.1,0.2,2.3,0.4,3.4c0.6,2.4-0.5,4.1-2.3,5.5c-0.9-0.4-1.5-1.1-1.7-2
		C471.6,453.8,472.8,451.5,474,449.2z"/>
	<path fill="#717070" d="M455,498.9c-0.7-3.2,0.7-5.9,2.1-8.6c0.6-1,1.2-1,1.8,0c-0.8,2.9-1.6,5.7-2.4,8.6
		C455.9,498.9,455.4,498.9,455,498.9z"/>
	<path fill="#7B7A7A" d="M455,498.9c0.5-0.1,1-0.1,1.5-0.1c-0.6,2.1-1.3,4.1-1.9,6.2c-0.7-0.7-1.5-1.3-2.2-2
		C453.2,501.7,454.1,500.3,455,498.9z"/>
	<path fill="#6A6969" d="M466,466.7c1-2.4,0-6,4-6.6c0.7,2.7,0.2,5-2.2,6.6C467.1,467.7,466.6,467.7,466,466.7z"/>
	<path fill="#878787" d="M465.3,475.1c-0.7-0.8-1.4-1.5-2.1-2.3c0.8-1.3,1.6-2.7,2.4-4c0.6-0.9,1.2-0.9,1.9-0.1
		C466.7,470.8,466,473,465.3,475.1z"/>
	<path fill="#767676" d="M459.5,481.9c0.7,0.7,1.3,1.4,2,2.1c-0.8,1.4-1.6,2.7-2.5,4.1c-0.5,0.9-1,0.9-1.6,0.1
		C458.1,486.1,458.8,484,459.5,481.9z"/>
	<path fill="#9A9A9A" d="M448.7,514.2c0.6-0.1,1.2-0.1,1.8-0.2c0,2.4,0.4,5-2.1,6.5C448.4,518.4,448.6,516.3,448.7,514.2z"/>
	<path fill="#505050" d="M470.4,456.1c0.6,0.7,1.1,1.4,1.7,2c-0.2,1.3-0.7,2.4-2.4,2.2C469.9,458.9,470.2,457.5,470.4,456.1z"/>
	<path fill="#010101" d="M444.2,531.4c0.6,0.1,1.1,0.1,1.7,0.1c-0.7,0.7-1.3,1.3-2,2C444,532.8,444.1,532.1,444.2,531.4z"/>
	<path fill="#626362" d="M467.5,468.7c-0.6,0.1-1.3,0.1-1.9,0.1c0.1-0.7,0.3-1.4,0.4-2.1c0.6,0,1.2,0,1.7,0
		C467.9,467.4,467.8,468,467.5,468.7z"/>
	<path fill="#6F6E6E" d="M457.4,488.2c0.5,0,1.1,0,1.6-0.1c0,0.7-0.1,1.4-0.1,2.2c0,0-0.9,0-0.9,0s-0.9,0-0.9,0
		C457.2,489.6,457.3,488.9,457.4,488.2z"/>
	<path fill="#FFFFFF" d="M663.1,494.6c-2.2-1.3-3.8-3.1-4-5.7c-0.2-2.7-4.4-4.5-2.3-7.4c2.4-3.3,5.6-1.1,8.5-0.2
		c1.3,0.4,2.7,0.3,4.1,0.4c2.4,1.6,0,2.8-0.3,4.1c-0.2,0.8-0.4,1.6-0.7,2.4c-1,1.3-1.7,2.9-2.2,4.4
		C665.3,493.6,664.5,494.5,663.1,494.6z"/>
	<path fill="#D4D4D4" d="M682.8,453.7c-0.1,5.9-2.5,10.9-6.5,15.2C676.4,462.9,678.7,457.9,682.8,453.7z"/>
	<path fill="#CFCFCF" d="M693.5,425.7c-0.6,3.9-1.3,7.8-4.2,10.9c-0.7,1.1-1.3,1.1-2,0c1.4-3.6,2.8-7.2,4.3-10.8
		C692.1,424.7,692.8,424.7,693.5,425.7z"/>
	<path fill="#D6D7D7" d="M689.1,440.8c-2.4,4.2-2,9.8-6.4,13c0.1-4.8,1.1-9.2,4.3-13C687.7,439.7,688.4,439.7,689.1,440.8z"/>
	<path fill="#C0C0C0" d="M667.9,486.2c0.5-1.5,1-3,1.5-4.5c1.6-2.2,3.2-4.4,4.8-6.5c0,4.2-0.9,8-4.2,10.8
		C669.4,487,668.7,487.1,667.9,486.2z"/>
	<path fill="#B7B7B7" d="M663.1,494.6c0.8-0.8,1.5-1.6,2.3-2.3c1.1,0.9,1.2,1.9,0.2,2.9c0.1,1.7-0.3,3.1-2.2,3.7
		c-0.5,1-1.2,1.1-1.9,0.2c0-0.7,0.1-1.5,0.1-2.2C662.2,496.1,662.6,495.4,663.1,494.6z"/>
	<path fill="#605F5F" d="M695.2,414.7c0.7,0.8,1.4,1.5,2.2,2.3c-0.6,1.5-1.2,3-1.7,4.4c-0.9,1-1.8,1-2.7,0
		C693.4,419.1,692.9,416.4,695.2,414.7z"/>
	<path fill="#D1D1D1" d="M676.4,468.7c0,2.4,0.4,5-2.2,6.6C674.2,472.9,673.8,470.3,676.4,468.7z"/>
	<path fill="#8B8B8A" d="M692.9,421.4c0.9,0,1.8,0,2.7,0c-0.7,1.4-1.4,2.8-2.1,4.2c0,0-1,0.2-1,0.2s-1-0.1-1-0.1
		C691.9,424.3,692.4,422.9,692.9,421.4z"/>
	<path fill="#BFBEBF" d="M689.1,440.8c-0.7,0-1.4,0.1-2.1,0.1c0-1.4,0.1-2.8,0.1-4.3c0.7,0,1.4,0,2,0
		C689.2,437.9,689.2,439.3,689.1,440.8z"/>
	<path fill="#FFFFFF" d="M325.7,460.2c-0.6,0-1.2,0-1.8,0c-0.9-0.6-1.5-1.5-1.8-2.6c-1.6-5.5-5.1-10.6-2.9-16.7
		c-1.1-5,5.9-11.1-2.1-15.2c0-1.4,0-2.8,0-4.3c0.8-0.7,1.4-1.4,2.1-2.1c2.5-3.2-0.7-8.6,4.3-10.8c13.6,0,34.2,17.3,36.7,30.6
		c0.4,2.1,1.4,4,2.1,6c1.7,3.9,1.5,7.8-0.2,11.7c-0.9,1.3-0.9,2.8-0.9,4.2c-0.2,1.4-0.8,2.7-1.2,4.1c-0.5,1.3-0.8,2.7-2,3.6
		c-3,0.3-6.3-0.9-8.6,2.2c-7.3,4-6.5-5.4-10.8-6.5c-1.4-0.7-2.9-1.4-4.3-2.2c-0.6-0.8-1.5-1.4-2.2-2.2c-1.4,0-2.9,0-4.3,0
		C327.2,461,326.5,460.9,325.7,460.2z"/>
	<path fill="#CDCDCD" d="M358,468.8c0-1.4,0-2.8,0.1-4.2c0.6-0.6,1.3-0.9,2.1-1.1c0.9-0.1,1.5,0.3,2,1c-4.2,7.6,0.3,16.4-3.6,24
		c-2.3-0.6-1-3.2-2.4-4.3C356.7,479,357.3,473.9,358,468.8z"/>
	<path fill="#CDCCCC" d="M390.4,440.5c0.8-0.6,1.6-1.3,2.3-1.9c1.2,5.8,2.5,11.6,3.7,17.4c-0.6,0.7-1.2,0.7-1.7-0.1
		C393.3,450.8,391.8,445.7,390.4,440.5z"/>
	<path fill="#CFCFCF" d="M360.5,458.1c1.9-4.1,1.9-8.5,1.9-12.9c1.4-2.2,2.9-4.4,4.3-6.5l0,0c0,6.8-1.4,13.2-4.3,19.4
		C361.7,459.1,361.1,459.1,360.5,458.1z"/>
	<path fill="#C4C4C4" d="M394.7,455.9c0.6,0,1.2,0,1.7,0.1c0,0,0.4-0.2,0.4-0.2c4.3,4,6,8.9,4.8,14.7c-0.8,1-1.7,1.2-2.7,0.5
		C395.8,466.4,395,461.2,394.7,455.9z"/>
	<path fill="#D2D2D2" d="M312.9,421.5c0.7,0,1.4,0,2.1,0c0.7,1.4,1.4,2.9,2.1,4.3c0,2.7,0,5.5,0,9
		C312.9,430.5,312.8,426,312.9,421.5z"/>
	<path fill="#CDCCCC" d="M409.6,494.6c0,2.8,0.1,5.6,0.1,8.3c1,0.9,1,1.8-0.2,2.5c-2.6-3.2-3.3-7.1-3.9-11.1c0.5-0.6,1.2-1,2.1-1
		c0.4,0.1,0.8,0.2,1.2,0.3C409,494.1,409.3,494.3,409.6,494.6z"/>
	<path fill="#FFFFFF" d="M323.6,408.6c-1.4,3.6-2.9,7.2-4.3,10.8C320.1,415.5,316.9,410,323.6,408.6z"/>
	<path fill="#BEBDBD" d="M403.2,483.8c-3.1-2.3-2-5.6-2.1-8.6c0.5-0.1,1-0.2,1.4-0.3c3.4,2.2,4.2,5.3,3.2,9
		C404.9,484.6,404,484.6,403.2,483.8z"/>
	<path fill="#ACACAC" d="M409.4,505.5c0.1-0.8,0.1-1.7,0.2-2.5c1.2,2.3,2.5,4.5,3.7,6.8c-0.5,0-0.9-0.1-1.4-0.1
		C411.1,508.3,410.3,506.9,409.4,505.5z"/>
	<path fill="#979696" d="M418.3,522.5c-0.7,0-1.4,0.1-2.2,0.1c-1.4-1.9-2.7-3.9-2.2-6.5c0.6-0.9,1.2-0.9,1.8,0
		C416.6,518.3,417.5,520.4,418.3,522.5z"/>
	<path fill="#A1A0A1" d="M415.7,516.2c-0.6,0-1.2,0-1.8,0c-2.1-1.7-2.4-4-1.9-6.5c0.5,0.1,0.9,0.1,1.4,0.1
		C414.1,511.9,414.9,514,415.7,516.2z"/>
	<path fill="#CDCDCD" d="M366.6,438.7c0-2,0-4.1,0-6.9C370,434.9,368.7,436.8,366.6,438.7C366.6,438.7,366.6,438.7,366.6,438.7z"/>
	<path fill="#A9AAAA" d="M356.1,484.1c0.8,1.4,1.6,2.9,2.4,4.3c0,0.7-0.2,1.4-0.7,2c0,0-0.9-0.1-0.9-0.1s-0.9,0.1-0.9,0.1
		C356.1,488.4,356.1,486.2,356.1,484.1z"/>
	<path fill="#ACACAC" d="M403.2,483.8c0.6,0.1,1.1,0.1,1.7,0.1c2.2,1.2,2.2,3.1,1.5,5.2c-0.3,0.4-0.7,0.7-1,1.1
		C402.8,488.7,403.1,486.2,403.2,483.8z"/>
	<path fill="#FFFFFF" d="M315,404.3c0.7,0,1.4,0,2.2,0c2.5,3-0.8,3.2-2.1,4.3C315,407.1,315,405.7,315,404.3z"/>
	<path fill="#C8C8C8" d="M360.5,458.1c0.6,0,1.2,0,1.8-0.1c-0.1,2.1-0.1,4.3-0.2,6.4c-0.7,0-1.4,0-2.1,0c-0.4-0.4-0.6-0.8-0.5-1.3
		c0.1-0.5,0.2-0.7,0.3-0.7C360,461,360.3,459.5,360.5,458.1z"/>
	<path fill="#A3A3A3" d="M407.6,494.6c-0.7,0-1.4,0-2.1-0.2c0-1.4-0.1-2.8-0.1-4.2c0,0-0.1,0.2-0.1,0.2c0.3-0.3,0.6-0.6,1-1
		c0.9,0.1,1.7,0.6,2.2,1.4C408.9,492.3,408.7,493.5,407.6,494.6z"/>
	<path fill="#B2B2B2" d="M398.9,470.9c0.6,0,1.2,0.1,1.8,0.1c1.4,1.3,1.6,2.7,0.2,4.2c0,0,0.1-0.1,0.1-0.1
		C399,474.4,398.9,472.7,398.9,470.9z"/>
	<path fill="#FFFFFF" d="M319.3,419.3c-0.7,0.7-1.4,1.4-2.1,2.1C317.9,420.7,318.6,420,319.3,419.3z"/>
	<path fill="#848484" d="M721.1,449.6c-0.6,0-1.1-0.1-1.7-0.2c-3.2-3.9-2.2-8.5-2.2-12.9c0.6-0.6,1.1-0.6,1.6,0.1
		c0.3,0.7,0.6,1.4,0.9,2.1c1.5,2,0.5,4.7,1.6,6.8C721.2,446.9,721.2,448.3,721.1,449.6z"/>
	<path fill="#B3B3B3" d="M766.7,415c0.2,3.1,0.6,6.3-2.2,8.6c-0.6,0.7-1.3,0.7-2,0.1c0.8-2.9,1.5-5.7,2.3-8.6
		C765.4,414.2,766.1,414.1,766.7,415z"/>
	<path fill="#9A9A9A" d="M718.8,436.7c-0.5,0-1.1,0-1.6-0.1c-3-2.3-2-5.6-2.1-8.6c0.8-0.8,1.6-0.9,2.5-0.2c1.3,2.2,0,4.9,1.6,7.1
		C719.1,435.4,719,436.1,718.8,436.7z"/>
	<path fill="#DFDFDF" d="M766.8,408.7c0.1-2.1,0.5-5.4,2.7-4.8c2.8,0.8,1.1,3.2-0.5,4.7C768.3,409.7,767.5,409.6,766.8,408.7z"/>
	<path fill="#ABABAB" d="M717,428c-0.6,0-1.3,0-1.9,0c-0.7-2.2-1.3-4.4-2-6.6c0.8-1,1.5-0.9,2.3,0.1c0.7,1.5,1.5,3,2.2,4.5
		C718.2,426.8,718,427.5,717,428z"/>
	<path fill="#828281" d="M715.4,421.4c-0.8,0-1.5-0.1-2.3-0.1c-0.6-2.2-1.3-4.4-1.9-6.6c0.7-0.7,1.4-1.5,2.1-2.2
		C716.2,415,715,418.4,715.4,421.4z"/>
	<path fill="#FFFFFF" d="M717,428c0.2-0.7,0.4-1.4,0.6-2.1c2.6,2.6,1.6,5.8,1.6,8.9C716.8,433.1,717.6,430.3,717,428z"/>
	<path fill="#C1C1C1" d="M766.8,408.7c0.7,0,1.4-0.1,2.2-0.1c-0.1,2.3,0.2,4.9-2.2,6.5c-0.6,0-1.3,0.1-1.9,0.1
		C765.5,413,766.1,410.8,766.8,408.7z"/>
	<path fill="#FFFFFF" d="M721.3,445.5c-1.7-2-2-4.3-1.6-6.8C723.3,440.3,722.8,442.8,721.3,445.5z"/>
	<path fill="#858586" d="M762.6,423.7c0.6-0.2,1.3-0.2,2-0.1c-0.4,0.6-0.9,1.1-1.3,1.7C763,424.8,762.8,424.3,762.6,423.7z"/>
	<path fill="#696A6A" d="M761.9,430c-0.5,0-1,0-1.6,0.1c0.4-0.6,0.8-1.2,1.2-1.9C761.7,428.8,761.8,429.4,761.9,430z"/>
	<path fill="#C6C6C5" d="M319.3,440.9c1.3,5.7,2.7,11.5,4,17.2c-0.7,0.9-1.3,0.9-1.8-0.2C319,452.6,314.8,447.3,319.3,440.9z"/>
	<path fill="#909090" d="M276.3,425.8c1.5-4.3,2.9-8.6,4.4-12.9c0.6-0.7,1.2-0.7,1.8-0.1c0,1.3,0,2.6,0,3.9
		c-0.8,1.4-0.9,3.1-1.4,4.6c-0.8,1.5-1.6,3-2.4,4.5C277.9,427,277.1,427,276.3,425.8z"/>
	<path fill="#757474" d="M286.8,395.6c0.8,0,1.7,0.1,2.5,0.1c-0.8,3.2-1.9,6.2-4.4,8.5c-0.6,1.1-1.2,1.1-1.8,0.1
		C283.5,401.1,284,397.9,286.8,395.6z"/>
	<path fill="#A7A6A6" d="M325.3,466.7c0.9,2.8,1.7,5.7,2.6,8.5c-0.7,0.9-1.5,0.9-2.2,0c-2.9-2.3-2.3-5.5-2.1-8.6
		C324.2,465.8,324.8,465.8,325.3,466.7z"/>
	<path fill="#AEAEAF" d="M325.3,466.7c-0.6,0-1.2,0-1.7-0.1c-3.1-2.3-1.9-5.6-2.1-8.6c0.6,0,1.2,0.1,1.8,0.2c0.2,0.7,0.4,1.3,0.7,2
		C324.4,462.4,324.8,464.5,325.3,466.7z"/>
	<path fill="#818080" d="M276.3,425.8c0.8,0,1.6,0,2.4,0.1c0.4,2.6-1,4.5-2.5,6.4l-1,0c0,0-0.9,0-0.9,0
		C275,430.1,275.7,427.9,276.3,425.8z"/>
	<path fill="#868686" d="M282.5,412.8c-0.6,0.1-1.2,0.1-1.8,0.1c0.7-2.2,1.4-4.3,2.2-6.5c0.6-0.7,1.3-0.8,1.9,0
		c0,1.2-0.1,2.3-0.1,3.5c-0.1,1.2-1.1,2.1-1.5,3.1L282.5,412.8z"/>
	<path fill="#B1B1B1" d="M311,403.9c0.5,0.1,1,0,1.5-0.2c0.2,2.4,0.7,4.8-1.5,6.6C311,408.2,311,406,311,403.9z"/>
	<path fill="#FCFDFF" d="M290.4,395.4c1-1.4,2-2.8,3-4.2C293.3,393.2,292.7,394.9,290.4,395.4z"/>
	<path fill="#FCFDFF" d="M281.2,421.3c0.5-1.5,0.9-3.1,1.4-4.6C282.1,418.2,281.6,419.8,281.2,421.3z"/>
	<path fill="#2F2F2F" d="M325.7,475.2c0.7,0,1.5,0,2.2,0c0.3,0.7,0.4,1.4,0.3,2.1c-0.7,0-1.3,0-2,0.1
		C326,476.7,325.9,475.9,325.7,475.2z"/>
	<path fill="#FCFDFF" d="M283.2,412.9c0.5-1,1-2.1,1.5-3.1C284.1,410.8,283.6,411.9,283.2,412.9z"/>
	<path fill="#5D5E5E" d="M284.7,406.3l-0.9,0.1c0,0-0.9-0.1-0.9-0.1c-0.3-0.7-0.2-1.4,0.2-2c0.6,0,1.2,0,1.8-0.1
		C285.2,405,285.1,405.7,284.7,406.3z"/>
	<path fill="#969796" d="M665.6,495.2c-0.1-1-0.1-2-0.2-2.9c0.9-1.3,1.8-2.7,2.7-4c0.4,0,0.9-0.1,1.3-0.1
		C668.1,490.5,666.9,492.8,665.6,495.2z"/>
	<path fill="#959595" d="M661.5,505.3c-1.2,0-2.3,0-3.5,0c1.2-1.4,2.3-2.8,3.5-4.2c0.5,0,0.9,0,1.4-0.1
		C662.4,502.5,661.9,503.9,661.5,505.3z"/>
	<path fill="#909191" d="M662.8,501c-0.5,0-0.9,0-1.4,0.1c-0.3-0.7-0.2-1.4,0.1-2c0.6,0,1.3-0.1,1.9-0.2
		C663.3,499.6,663,500.3,662.8,501z"/>
	<path fill="#939393" d="M669.4,488.1c-0.4,0-0.9,0-1.3,0.1c-0.3-0.7-0.4-1.4-0.2-2.1c0.7-0.1,1.4-0.2,2.1-0.2
		C669.8,486.7,669.6,487.4,669.4,488.1z"/>
	<path fill="#828181" d="M247.7,415.4c-0.6,0.7-1.2,1.3-1.8,2c-2.8-3.3-2.5-7.1-1.9-11c0.6-0.7,1.2-0.6,1.7,0.1
		C246.4,409.5,247,412.4,247.7,415.4z"/>
	<path fill="#929292" d="M245.7,406.5c-0.6,0-1.1,0-1.7-0.1c-0.6-1.5-1.2-2.9-1.8-4.4c0.7-0.9,0.8-2.2,2.1-2.5
		C244.8,401.8,245.2,404.2,245.7,406.5z"/>
	<path fill="#6F6F6F" d="M241.7,382.8c0.6,0,1.2-0.1,1.8-0.1c0,2.8,0.1,5.6,0.1,8.4c-0.5,1.2-1,1.3-1.5,0
		C242,388.4,241.9,385.6,241.7,382.8z"/>
	<path fill="#A3A2A3" d="M242.2,391.1c0.5,0,1,0,1.5,0c0.1,2.2,0.3,4.4,0.4,6.7c-0.6,1-1.2,1-1.9,0.1
		C242.2,395.6,242.2,393.4,242.2,391.1z"/>
	<path fill="#8B8B8B" d="M242.2,397.9c0.6,0,1.2-0.1,1.9-0.1c0.3,0.5,0.4,1.1,0.2,1.7c-0.7,0.8-1.4,1.7-2.1,2.5
		C242.2,400.6,242.2,399.3,242.2,397.9z"/>
	<path fill="#FFFFFF" d="M446.2,520.4c-0.9,2.9-1.8,5.7-2.8,8.6c-11.4,1.4-17.3-2.3-17-15.1c0.3-10.6-3.1-20.1-16.9-19.3
		c0,0,0,0,0,0c-1.3-1.1-0.7-3.3-2.2-4.3l0,0.1c0.5-6.5-3.8-13.6,2.2-19.5c0-3.6,0-7.2,0-10.7c0-16.4,1.5-16.8,18.5-17.8
		c7.6-0.5,14.5-2.1,22.1,0.7c10,3.6,13.5,12.4,5.1,19.1c-13.1,10.5-12.2,24.3-11.5,38C444.3,506.9,439.6,514.5,446.2,520.4z"/>
	<path fill="#FFFFFF" d="M409.6,470.9c-0.7,6.5-1.5,13-2.2,19.5c0,0-1.1-0.1-1.1-0.1s-1.1,0-1.1,0c-0.1-2.1-0.2-4.3-0.4-6.4
		c-1.4-2.9-0.8-6.6-3.9-8.7c-0.1-1.4-0.1-2.8-0.2-4.2c-1.3-5.1-2.6-10.2-3.9-15.2c8.3-3.3,11.9-0.7,10.7,8.3
		C407.2,466.6,407.4,469.1,409.6,470.9z"/>
	<path fill="#FFFFFF" d="M338.6,464.5c4.9,0,5.5,7.1,10.8,6.5C342.9,476.3,342.9,476.3,338.6,464.5z"/>
	<path fill="#FFFFFF" d="M325.7,460.2c0.7,0,1.4,0,2.2,0C327.2,461.3,326.5,461.3,325.7,460.2z"/>
	<path fill="#FFFFFF" d="M332.2,460.2c0.7,0.7,1.4,1.4,2.2,2.2C333.6,461.6,332.9,460.9,332.2,460.2z"/>
	<path fill="#FFFFFF" d="M329.9,477.5c0.2-0.3,0.3-0.6,0.5-0.9C330.2,476.9,330.1,477.2,329.9,477.5
		C329.9,477.5,329.9,477.5,329.9,477.5z"/>
	<path fill="#AEAEAF" d="M222.6,387.2c-0.1-0.9-0.2-1.9-0.2-2.8c0.4-1.5-0.2-4.6,2.8-1.7C224.3,384.2,223.4,385.7,222.6,387.2z"/>
	<path fill="#262626" d="M824.6,386.6c-0.7,0.2-1.4,0.4-2.1,0.6c0.1-1.4,0.3-2.9,0.4-4.3c0.7,0,1.5,0,2.2,0c0.4,0.7,0.4,1.4,0,2.1
		C824.6,385.3,824.4,385.9,824.6,386.6z"/>
	<path fill="#D9D9D8" d="M825.2,384.9c-0.1-0.7-0.1-1.4,0-2.1c0.6,0.1,1.1,0,1.7-0.4C826.3,383.3,825.7,384.1,825.2,384.9z"/>
	<path fill="#FFFFFF" d="M359.8,462.4c0.1,0.7,0.2,1.3,0.2,2c-0.7,0-1.3,0.1-2,0.1C358.6,463.9,359.2,463.1,359.8,462.4z"/>
	<path fill="#FFFFFF" d="M407.3,490.3c0.7,1.4,1.5,2.9,2.2,4.3c-0.7,0-1.3-0.1-2-0.1C407.5,493.2,407.4,491.8,407.3,490.3z"/>
</g>
</svg>
