<?xml version="1.0" encoding="utf-8"?>
<!-- Generator: Adobe Illustrator 18.1.0, SVG Export Plug-In . SVG Version: 6.00 Build 0)  -->
<svg version="1.1" id="Layer_1" xmlns="http://www.w3.org/2000/svg" xmlns:xlink="http://www.w3.org/1999/xlink" x="0px" y="0px"
	 viewBox="0 0 1386.5 327.1" enable-background="new 0 0 1386.5 327.1" xml:space="preserve">
<g>
	<path fill="#FFFFFF" d="M242.4,36.6c0,0,69.5-58.2,158.3-7.9l299.4,259.8c0,0-67.7,64.3-162.2,6.8L242.4,36.6z"/>
	<path d="M613.1,326.6c-26.4-0.7-53-9.1-79.1-24.9l-0.6-0.3l-0.5-0.4l-302-264.5l6.7-5.6c1.5-1.3,38.3-31.5,93.1-30.1
		c25,0.6,49.8,7.8,73.7,21.4l0.7,0.4l306.2,265.7l-6,5.7C703.8,295.3,668.7,328.1,613.1,326.6z M542.3,289.2
		c23.7,14.3,47.6,21.8,71.2,22.4c36.2,0.9,63.1-14.9,74.9-23.4l-292-253.4c-21.5-12.1-43.8-18.5-66-19.1
		c-35.7-0.9-63.3,13.5-75.8,21.5L542.3,289.2z"/>
</g>
<g>
	<path fill="#FFFFFF" d="M11.5,36.5c0,0,69.5-58.2,158.3-7.9l299.4,259.8c0,0-67.7,64.3-162.2,6.8L11.5,36.5z"/>
	<path d="M382.2,326.6c-26.4-0.7-53-9.1-79.1-24.9l-0.6-0.3l-0.5-0.4L0,36.4l6.7-5.6C8.3,29.5,45-0.7,99.8,0.7
		c25,0.6,49.8,7.8,73.7,21.4l0.7,0.4l306.2,265.7l-6,5.7C472.9,295.2,437.8,328,382.2,326.6z M311.4,289.2
		c23.7,14.3,47.6,21.8,71.2,22.4c36.2,0.9,63.1-14.9,74.9-23.4l-292-253.4c-21.5-12.1-43.8-18.5-66-19.1
		c-35.7-0.9-63.3,13.5-75.8,21.5L311.4,289.2z"/>
</g>
<g>
	<path fill="#FFFFFF" d="M462.2,37.1c0,0,69.5-58.2,158.3-7.9l299.4,259.8c0,0-67.7,64.3-162.2,6.8L462.2,37.1z"/>
	<path d="M832.9,327.1c-26.4-0.7-53-9.1-79.1-24.9l-0.6-0.3l-0.5-0.4L450.7,37l6.7-5.6c1.5-1.3,38.3-31.5,93.1-30.1
		c25,0.6,49.8,7.8,73.7,21.4l0.7,0.4L931,288.7l-6,5.7C923.6,295.8,888.4,328.5,832.9,327.1z M762.1,289.7
		c23.7,14.3,47.6,21.8,71.2,22.4c36.2,0.9,63.1-14.9,74.9-23.4l-292-253.4c-21.5-12.1-43.8-18.5-66-19.1
		c-35.7-0.9-63.3,13.5-75.8,21.5L762.1,289.7z"/>
</g>
<g>
	<path fill="#FFFFFF" d="M692.5,36.5c0,0,69.5-58.2,158.3-7.9l299.4,259.8c0,0-67.7,64.3-162.2,6.8L692.5,36.5z"/>
	<path d="M1063.2,326.6c-26.4-0.7-53-9.1-79.1-24.9l-0.6-0.3l-0.5-0.4L681,36.4l6.7-5.6c1.5-1.3,38.3-31.5,93.1-30.1
		c25,0.6,49.8,7.8,73.7,21.4l0.7,0.4l306.2,265.7l-6,5.7C1153.9,295.2,1118.7,328,1063.2,326.6z M992.4,289.2
		c23.7,14.3,47.6,21.8,71.2,22.4c36.2,0.9,63.1-14.9,74.9-23.4l-292-253.4c-21.5-12.1-43.8-18.5-66-19.1
		c-35.7-0.9-63.3,13.5-75.8,21.5L992.4,289.2z"/>
</g>
<g>
	<path fill="#FFFFFF" d="M917.7,35.9c0,0,69.5-58.2,158.3-7.9l299.4,259.8c0,0-67.7,64.3-162.2,6.8L917.7,35.9z"/>
	<path d="M1288.4,325.9c-26.4-0.7-53-9.1-79.1-24.9l-0.6-0.3l-0.5-0.4l-302-264.5l6.7-5.6c1.5-1.3,38.3-31.5,93.1-30.1
		c25,0.6,49.8,7.8,73.7,21.4l0.7,0.4l306.2,265.7l-6,5.7C1379.1,294.6,1343.9,327.4,1288.4,325.9z M1217.6,288.5
		c23.7,14.3,47.6,21.8,71.2,22.4c36.2,0.9,63.1-14.9,74.9-23.4l-292-253.4c-21.5-12.1-43.8-18.5-66-19.1
		c-35.7-0.9-63.3,13.5-75.8,21.5L1217.6,288.5z"/>
</g>
</svg>
