<?xml version="1.0" encoding="utf-8"?>
<!-- Generator: Adobe Illustrator 18.1.0, SVG Export Plug-In . SVG Version: 6.00 Build 0)  -->
<svg version="1.1" id="Layer_1" xmlns="http://www.w3.org/2000/svg" xmlns:xlink="http://www.w3.org/1999/xlink" x="0px" y="0px"
	 viewBox="0 334 1000.1 330" enable-background="new 0 334 1000.1 330" xml:space="preserve">
<g>
	<path fill="#FFFFFF" d="M174.8,408.4c0,0,50.1-42,114.2-5.7l215.9,187.4c0,0-48.8,46.4-117,4.9L174.8,408.4z"/>
	<path d="M442.2,617.6c-19-0.5-38.2-6.6-57.1-18l-0.4-0.2l-0.4-0.3L166.5,408.4l4.8-4c1.1-0.9,27.6-22.7,67.1-21.7
		c18,0.4,35.9,5.6,53.2,15.4l0.5,0.3L513,590l-4.3,4.1C507.6,595,482.3,618.7,442.2,617.6z M391.1,590.6
		c17.1,10.3,34.3,15.7,51.4,16.2c26.1,0.6,45.5-10.7,54-16.9L285.9,407.1c-15.5-8.7-31.6-13.3-47.6-13.8
		c-25.7-0.6-45.7,9.7-54.7,15.5L391.1,590.6z"/>
</g>
<g>
	<path fill="#FFFFFF" d="M8.3,408.4c0,0,50.1-42,114.2-5.7L338.4,590c0,0-48.8,46.4-117,4.9L8.3,408.4z"/>
	<path d="M275.7,617.6c-19-0.5-38.2-6.6-57.1-18l-0.4-0.2l-0.4-0.3L0,408.3l4.8-4c1.2-0.9,27.6-22.7,67.1-21.7
		c18,0.4,35.9,5.6,53.2,15.4l0.5,0.3l220.8,191.6l-4.3,4.1C341.1,595,315.8,618.6,275.7,617.6z M224.6,590.6
		c17.1,10.3,34.3,15.7,51.4,16.2c26.1,0.6,45.5-10.7,54-16.9L119.4,407.1c-15.5-8.7-31.6-13.3-47.6-13.8
		c-25.7-0.6-45.7,9.7-54.7,15.5L224.6,590.6z"/>
</g>
<g>
	<path fill="#FFFFFF" d="M333.4,408.8c0,0,50.1-42,114.2-5.7l215.9,187.4c0,0-48.8,46.4-117,4.9L333.4,408.8z"/>
	<path d="M600.7,618c-19-0.5-38.2-6.6-57.1-18l-0.4-0.2l-0.4-0.3L325.1,408.7l4.8-4c1.1-0.9,27.6-22.7,67.1-21.7
		c18,0.4,35.9,5.6,53.2,15.4l0.5,0.3l220.8,191.6l-4.3,4.1C666.1,595.4,640.8,619,600.7,618z M549.7,591
		c17.1,10.3,34.3,15.7,51.4,16.2c26.1,0.6,45.5-10.7,54-16.9L444.4,407.5c-15.5-8.7-31.6-13.3-47.6-13.8
		c-25.7-0.6-45.7,9.7-54.7,15.5L549.7,591z"/>
</g>
<g>
	<path fill="#FFFFFF" d="M499.5,408.4c0,0,50.1-42,114.2-5.7L829.6,590c0,0-48.8,46.4-117,4.9L499.5,408.4z"/>
	<path d="M766.8,617.6c-19-0.5-38.2-6.6-57.1-18l-0.4-0.2l-0.4-0.3L491.2,408.3l4.8-4c1.1-0.9,27.6-22.7,67.1-21.7
		c18,0.4,35.9,5.6,53.2,15.4l0.5,0.3l220.8,191.6l-4.3,4.1C832.2,595,806.9,618.6,766.8,617.6z M715.8,590.6
		c17.1,10.3,34.3,15.7,51.4,16.2c26.1,0.6,45.5-10.7,54-16.9L610.5,407.1c-15.5-8.7-31.6-13.3-47.6-13.8
		c-25.7-0.6-45.7,9.7-54.7,15.5L715.8,590.6z"/>
</g>
<g>
	<path fill="#FFFFFF" d="M661.9,407.9c0,0,50.1-42,114.2-5.7L992,589.6c0,0-48.8,46.4-117,4.9L661.9,407.9z"/>
	<path d="M929.2,617.1c-19-0.5-38.2-6.6-57.1-18l-0.4-0.2l-0.4-0.3L653.6,407.9l4.8-4c1.1-0.9,27.6-22.7,67.1-21.7
		c18,0.4,35.9,5.6,53.2,15.4l0.5,0.3l220.8,191.6l-4.3,4.1C994.7,594.5,969.3,618.2,929.2,617.1z M878.2,590.1
		c17.1,10.3,34.3,15.7,51.4,16.2c26.1,0.6,45.5-10.7,54-16.9L773,406.6c-15.5-8.7-31.6-13.3-47.6-13.8c-25.7-0.6-45.7,9.7-54.7,15.5
		L878.2,590.1z"/>
</g>
<rect y="334" fill="none" width="1000.1" height="330"/>
</svg>
