<?xml version="1.0" encoding="utf-8"?>
<!-- Generator: Adobe Illustrator 18.1.0, SVG Export Plug-In . SVG Version: 6.00 Build 0)  -->
<svg version="1.1" id="Layer_1" xmlns="http://www.w3.org/2000/svg" xmlns:xlink="http://www.w3.org/1999/xlink" x="0px" y="0px"
	 viewBox="0 0 114 114" enable-background="new 0 0 114 114" xml:space="preserve">
<path fill="#CDB6D8" d="M57,114c31.5,0,57-25.5,57-57c0-31.5-25.5-57-57-57C25.5,0,0,25.5,0,57C0,88.5,25.5,114,57,114"/>
<path fill="#FFFFFF" d="M85.6,42.1c-2.1,0.9-4.4,1.6-6.7,1.8c2.4-1.5,4.3-3.7,5.2-6.5c-2.3,1.3-4.8,2.3-7.4,2.8
	c-2.1-2.3-5.2-3.7-8.6-3.7c-6.5,0-11.7,5.2-11.7,11.7c0,0.9,0.1,1.8,0.3,2.7c-9.7-0.5-18.4-5.1-24.1-12.2c-1,1.7-1.6,3.7-1.6,5.9
	c0,4.1,2.1,7.6,5.2,9.8c-1.9-0.1-3.7-0.6-5.3-1.5V53c0,5.7,4,10.4,9.4,11.5c-1,0.3-2,0.4-3.1,0.4c-0.8,0-1.5-0.1-2.2-0.2
	c1.5,4.7,5.8,8,10.9,8.1c-4,3.1-9.1,5-14.5,5c-0.9,0-1.9-0.1-2.8-0.2c5.2,3.3,11.3,5.3,18,5.3C68,83,79.8,65.1,79.8,49.7
	c0-0.5,0-1,0-1.5C82.1,46.5,84,44.4,85.6,42.1"/>
</svg>
